<?xml version="1.0" encoding="utf-8"?>
<!-- Generator: Adobe Illustrator 16.0.0, SVG Export Plug-In . SVG Version: 6.00 Build 0)  -->
<!DOCTYPE svg PUBLIC "-//W3C//DTD SVG 1.1//EN" "http://www.w3.org/Graphics/SVG/1.1/DTD/svg11.dtd">
<svg version="1.1" id="Layer_1" xmlns="http://www.w3.org/2000/svg" xmlns:xlink="http://www.w3.org/1999/xlink" x="0px" y="0px"
	 width="1000px" height="1000px" viewBox="0 0 1000 1000" enable-background="new 0 0 1000 1000" xml:space="preserve">
<g>
	<g>
		<g>
			<path fill="#FFFFFE" d="M347.443,712.612c0,0-108.878,66.893-100.197,104.837c8.677,37.947,140.641,30.306,198.819-11.331"/>
		</g>
		<g>
			<g>
				<path fill="#0B0B0B" d="M313.915,849.729c-19.765,0.001-37.162-2.443-49.775-7.227c-17.247-6.54-22.786-16.301-24.395-23.338
					c-4.365-19.08,11.813-43.387,49.46-74.309c26.239-21.553,53.08-38.105,54.209-38.799c3.621-2.227,8.358-1.094,10.583,2.526
					c2.225,3.621,1.094,8.359-2.526,10.585c-43.254,26.587-101.859,74.123-96.725,96.564c1.397,6.108,8.846,10.104,14.849,12.381
					c37.821,14.342,128.02,3.216,171.991-28.252c3.455-2.475,8.262-1.677,10.735,1.778c2.473,3.457,1.677,8.263-1.779,10.736
					c-22.292,15.953-56.896,28.385-94.941,34.105C341.137,848.656,327.006,849.729,313.915,849.729z"/>
			</g>
		</g>
	</g>
	<g>
		<path fill="#FFFFFF" d="M227.681,753.082c0,0,59.663,103.994,87.898,98.26c28.235-5.737-62.858-113.915-62.858-113.915"/>
		<g>
			<path fill="#0B0B0B" d="M312.979,858.206c-9.919,0-26.424-7.683-57.266-49.957c-18.444-25.28-33.603-51.621-33.753-51.886
				c-1.813-3.159-0.721-7.188,2.438-9.002c3.158-1.812,7.19-0.721,9.003,2.438c0.148,0.257,14.995,26.052,33.025,50.754
				c32.7,44.798,45.591,44.774,47.84,44.325c0.035-0.008,0.067-0.015,0.096-0.021c0.382-1.839,0.686-13.04-29.956-55.834
				c-17.628-24.62-36.542-47.124-36.731-47.35c-2.347-2.785-1.99-6.946,0.796-9.293c2.786-2.346,6.947-1.99,9.293,0.798
				c0.189,0.225,19.127,22.757,36.924,47.548c33.418,46.553,34.685,61.186,32.056,68.733c-1.534,4.402-5.033,7.366-9.853,8.346
				C315.711,858.046,314.414,858.206,312.979,858.206z"/>
		</g>
	</g>
	<g>
		
			<ellipse transform="matrix(0.8844 -0.4668 0.4668 0.8844 -347.3447 220.2054)" fill="#FFFFFF" cx="270.793" cy="811.188" rx="48.569" ry="56.614"/>
		<g>
			<path fill="#0B0B0B" d="M277.18,873.857c-22.432,0-44.47-14.289-56.144-36.405c-7.917-14.996-10.333-31.808-6.804-47.337
				c3.627-15.963,13.054-28.675,26.544-35.795c7.288-3.848,15.24-5.8,23.634-5.8c22.433,0,44.47,14.29,56.142,36.404
				c7.917,14.996,10.333,31.809,6.806,47.338c-3.627,15.964-13.053,28.677-26.543,35.797
				C293.525,871.906,285.573,873.857,277.18,873.857z M264.41,763.91c-5.864,0-11.399,1.353-16.45,4.02
				c-9.457,4.991-16.105,14.08-18.722,25.595c-2.714,11.946-0.794,24.996,5.407,36.744c9.043,17.131,25.739,28.199,42.534,28.199
				c5.864,0,11.399-1.352,16.451-4.019c9.456-4.991,16.104-14.08,18.72-25.596c2.714-11.946,0.794-24.997-5.408-36.745
				C297.9,774.979,281.206,763.91,264.41,763.91z"/>
		</g>
	</g>
	<g>
		<path fill="#FFFFFF" d="M792.945,842.207c-31.555,15.133-122.641,29.852-248.553,9.185
			c-125.91-20.668-184.781-94.609-130.819-225.502c0,0,276.539-70.204,356.481-35.824
			C836.881,618.807,902.122,789.849,792.945,842.207z"/>
		<g>
			<path fill="#0B0B0B" d="M663.898,869.283c-38.494,0-79.121-3.465-120.753-10.299c-34.122-5.601-63.313-15.061-86.764-28.113
				c-24.524-13.651-42.949-31.32-54.764-52.514c-22.591-40.527-20.962-92.812,4.841-155.4c0.927-2.249,2.863-3.927,5.22-4.525
				c1.794-0.455,180.669-45.539,291.984-45.539c30.91,0,53.621,3.305,69.431,10.104c44.448,19.116,84.595,92.374,85.916,156.77
				c1.038,50.634-21.243,89.479-62.738,109.378C775.972,858.88,730.537,869.283,663.898,869.283z M419.229,632.413
				c-22.536,56.415-23.942,102.98-4.169,138.451c20.968,37.614,64.901,62.153,130.578,72.935
				c40.81,6.698,80.599,10.095,118.26,10.095c64.128,0,107.804-10.032,125.72-18.625c45.799-21.964,54.647-63.886,54.006-95.187
				c-1.302-63.517-41.52-127.856-76.609-142.947c-13.659-5.874-34.973-8.854-63.351-8.854
				C603.125,588.281,445.515,625.952,419.229,632.413z"/>
		</g>
	</g>
	<g>
		<g>
			<path fill="#FFFFFE" d="M831.605,726.767c0,0,139.102,33.724,139.783,72.642c0.689,38.923-122.619,73.649-189.091,47.199"/>
		</g>
		<g>
			<g>
				<path fill="#0B0B0B" d="M838.403,863.501c-21.363,0.001-41.926-2.97-58.951-9.745c-3.949-1.571-5.875-6.045-4.304-9.994
					c1.571-3.947,6.046-5.876,9.994-4.305c47.359,18.845,128.05,4.601,163.285-19.759c9.954-6.882,15.376-14.039,15.268-20.153
					c-0.079-4.487-5.012-20.908-65.196-43.861c-34.012-12.973-68.364-21.355-68.707-21.438c-4.129-1.002-6.666-5.162-5.665-9.291
					c1.001-4.131,5.158-6.671,9.291-5.665c1.439,0.349,35.65,8.698,70.564,22.015c50.186,19.141,74.75,38.103,75.099,57.97
					c0.143,8.085-3.541,20.388-21.904,33.083C930.761,850.619,882.868,863.499,838.403,863.501z"/>
			</g>
		</g>
	</g>
	<g>
		<path fill="#FFFFFF" d="M571.021,712.194c0,0,84.172,18.638,118.512,39.35c34.343,20.712,177.054,109.093,197.555-44.483
			c20.504-153.575-339.485-240.865-380.529-37.495"/>
		<g>
			<path fill="#0B0B0B" d="M641.567,693.057c-1.765,0-3.511-0.708-4.793-2.063l-70.864-74.886c-1.406-1.485-2.042-3.539-1.725-5.56
				l6.575-41.719c0.566-3.599,3.945-6.055,7.542-5.488c3.598,0.566,6.055,3.943,5.488,7.541l-6.069,38.516l64.968,68.655
				l73.585-44.823l19.634-69.13c0.995-3.504,4.645-5.539,8.146-4.542c3.504,0.995,5.538,4.642,4.542,8.146l-20.34,71.616
				c-0.454,1.599-1.494,2.966-2.913,3.83l-80.349,48.942C643.932,692.742,642.745,693.057,641.567,693.057z"/>
		</g>
		<g>
			<path fill="#0B0B0B" d="M807.991,803.317c-16.057,0-34.063-3.589-53.896-10.767c-28.809-10.426-54.698-26.063-67.14-33.575
				l-1.396-0.843c-32.862-19.819-115.372-38.241-116.202-38.426c-4.149-0.919-6.768-5.027-5.849-9.177
				c0.919-4.148,5.027-6.771,9.176-5.849c3.487,0.772,85.806,19.153,120.822,40.273l1.403,0.847
				c23.848,14.403,96.419,58.229,142.866,35.942c22.389-10.742,36.413-36.213,41.685-75.701
				c5.616-42.066-19.994-73.482-42.467-92.43c-29.858-25.174-73.105-43.986-118.651-51.615
				c-81.312-13.617-183.593,6.783-204.241,109.09c-0.84,4.166-4.898,6.863-9.065,6.02c-4.166-0.84-6.861-4.899-6.021-9.064
				c9.945-49.276,38.942-86.257,83.857-106.945c38.391-17.683,87.404-22.751,138.011-14.277
				c48.187,8.07,94.123,28.128,126.029,55.027c35.927,30.291,52.903,68.018,47.801,106.232
				c-6.001,44.957-22.918,74.409-50.28,87.539C833.738,800.752,821.56,803.317,807.991,803.317z"/>
		</g>
		<path fill="#FFFFFF" d="M875.866,655.468c-21.837,163.556-173.821,69.433-210.397,47.38
			c-36.57-22.062-126.213-41.911-126.213-41.911l-27.23-18.01c-5.782,11.833-10.265,24.978-13.203,39.534l68.647,45.403
			c0,0,89.646,19.848,126.215,41.906c36.573,22.058,188.559,116.177,210.396-47.376c4.225-31.649-6.73-60.648-27.45-85.28
			C876.934,643.121,876.698,649.241,875.866,655.468z"/>
		<g>
			<path fill="#0B0B0B" d="M819.825,824.414c-50.547,0-107.28-34.264-128.637-47.162l-1.477-0.893
				c-35.084-21.162-123.021-40.787-123.905-40.982c-0.92-0.203-1.795-0.575-2.581-1.095l-68.647-45.402
				c-2.613-1.729-3.918-4.87-3.298-7.94c2.986-14.793,7.64-28.719,13.833-41.391c0.972-1.989,2.754-3.464,4.891-4.046
				c2.136-0.583,4.419-0.216,6.267,1.006l26.051,17.229c12.018,2.72,91.998,21.331,127.123,42.521l1.51,0.912
				c20.352,12.287,74.413,44.928,120.657,44.928c43.688,0,68.754-28.67,76.628-87.649c0.752-5.627,0.99-11.329,0.707-16.948
				c-0.166-3.3,1.793-6.338,4.868-7.547c3.074-1.211,6.579-0.322,8.705,2.207c23.357,27.768,33.451,59.321,29.188,91.251
				c-4.732,35.445-15.917,61.965-33.243,78.821C863.339,816.951,843.609,824.414,819.825,824.414z M570.534,720.665
				c12.019,2.721,92.001,21.329,127.125,42.517l1.484,0.896c20.354,12.292,74.42,44.946,120.681,44.946
				c43.689,0,68.755-28.671,76.629-87.648c2.874-21.53-1.615-42.326-13.356-62.053c-4.941,34.021-15.987,59.574-32.849,75.981
				c-15.129,14.721-34.857,22.183-58.638,22.183c-50.531,0-107.256-34.249-128.611-47.143l-1.504-0.907
				c-35.067-21.155-123.02-40.792-123.904-40.988c-0.92-0.203-1.795-0.574-2.581-1.094l-19.69-13.023
				c-3.223,7.775-5.854,16.013-7.861,24.617L570.534,720.665z"/>
		</g>
		<g>
			<path fill="#0B0B0B" d="M804.618,721.832c-1.997,0.001-3.934-0.908-5.208-2.547l-58.34-75.052
				c-1.258-1.62-1.692-3.732-1.173-5.716l17.081-65.334c0.921-3.523,4.522-5.635,8.049-4.712c3.524,0.921,5.634,4.524,4.712,8.049
				l-16.257,62.186l53.436,68.741l51.483-17.976c3.442-1.202,7.2,0.614,8.401,4.054c1.201,3.438-0.613,7.2-4.052,8.401
				l-55.958,19.537C806.079,721.712,805.345,721.832,804.618,721.832z"/>
		</g>
		<g>
			<path fill="#0B0B0B" d="M793.385,750.931c-2.068,0.001-4.105-0.969-5.39-2.786l-56.975-80.559l-64.515,38.775
				c-3.122,1.876-7.174,0.866-9.05-2.256c-1.876-3.121-0.867-7.174,2.255-9.051l69.762-41.929c2.959-1.777,6.789-0.974,8.782,1.845
				l60.509,85.556c2.104,2.975,1.397,7.091-1.576,9.193C796.031,750.538,794.701,750.931,793.385,750.931z"/>
		</g>
		<g>
			<path fill="#0B0B0B" d="M595.638,680.695c-1.841,0-3.673-0.767-4.977-2.266l-37.892-43.521l-29.14,12.857
				c-3.333,1.471-7.226-0.04-8.696-3.372c-1.471-3.332,0.039-7.226,3.371-8.696l33.586-14.819c2.644-1.168,5.739-0.477,7.637,1.703
				l41.083,47.188c2.392,2.747,2.104,6.913-0.644,9.305C598.717,680.162,597.174,680.695,595.638,680.695z"/>
		</g>
	</g>
	<g>
		<path fill="#FFFFFF" d="M436.48,266.942c-257.203,28.649-239.55,287.761-225.44,361.714
			c17.208,90.223,156.512,118.288,264.348,104.892c70.151-8.714,269.451-11.567,257.177-221.272
			C720.288,302.568,582.803,250.646,436.48,266.942z"/>
		<g>
			<path fill="#0B0B0B" d="M423.373,744.406c-52.434,0-102.126-9.277-139.922-26.122c-45.151-20.123-72.804-50.618-79.969-88.187
				c-2.573-13.488-10.56-62.033-5.275-120.366c5.565-61.431,23.526-113.098,53.385-153.566
				c40.738-55.214,102.658-87.806,184.037-96.871c16.861-1.877,33.422-2.83,49.225-2.83c71.504,0,129.518,18.859,172.43,56.053
				c49.836,43.196,77.749,110.252,82.962,199.308c5.063,86.491-24.699,149.119-88.458,186.146
				c-52.369,30.413-115.436,36.914-157.168,41.215c-6.652,0.687-12.936,1.334-18.284,1.998
				C459.123,743.322,441.304,744.406,423.373,744.406z M484.853,271.854c-15.235,0-31.224,0.92-47.521,2.736
				c-76.942,8.57-135.269,39.091-173.356,90.713c-73.632,99.795-48.487,245.613-45.377,261.912
				c14.331,75.14,119.268,101.802,204.774,101.802c17.299,0,34.48-1.044,51.066-3.104c5.507-0.685,11.868-1.34,18.603-2.034
				c40.422-4.167,101.509-10.463,151.018-39.215c59.147-34.349,85.584-90.59,80.823-171.938
				C713.229,313.643,587.92,271.854,484.853,271.854z"/>
		</g>
	</g>
	<g>
		<g>
			<g>
				<path fill="#0B0B0B" d="M383.139,205.349c-0.002,0-0.004,0-0.006,0c-25.793-0.001-41.075-4.939-46.715-15.096
					c-2.609-4.699-4.252-12.657,2.739-23.886c7.497-12.041,16.837-14.568,23.352-14.568c24.532,0,49.042,36.092,51.755,40.208
					c1.465,2.222,1.678,5.043,0.563,7.459c-1.115,2.417-3.399,4.086-6.04,4.413C408.303,203.938,396.773,205.349,383.139,205.349z
					 M362.508,167.188c-2.461,0-6.206,0.759-10.288,7.313c-1.104,1.773-3.543,6.129-2.349,8.28
					c0.408,0.734,4.807,7.177,33.261,7.178c0.001,0,0.004,0,0.006,0c3.616,0,7.09-0.109,10.212-0.265
					C384.11,178.571,371.699,167.188,362.508,167.188z"/>
			</g>
			<g>
				<path fill="#0B0B0B" d="M407.838,203.937c-2.376,0-4.637-1.101-6.102-3.009c-1.621-2.11-2.036-4.909-1.097-7.399
					c1.977-5.246,20.097-51.256,47.052-51.256c7.289,0,14.201,3.253,20.542,9.671c9.789,9.905,9.533,18.392,7.595,23.767
					c-3.627,10.06-16.109,17.609-38.159,23.078c-14.757,3.661-28.49,5.053-29.068,5.11
					C408.347,203.924,408.092,203.937,407.838,203.937z M447.691,157.662c-9.63,0-20.28,15.583-27.166,29.073
					c19.801-3.443,38.518-9.839,40.826-16.245c0.862-2.392-2.555-6.202-4.064-7.729
					C453.944,159.377,450.715,157.662,447.691,157.662z"/>
			</g>
		</g>
		<path fill="#FFFFFF" d="M329.603,298.497c0,0-67.068,25.76-89.18,69.824c-22.108,44.061,57.963,76.706,140.405,60.735
			c82.437-15.971,101.376-79.106,101.376-79.106L329.603,298.497z"/>
		<g>
			<path fill="#0B0B0B" d="M338.04,440.868c-0.002,0-0.004,0-0.006,0c-48.345-0.001-88.906-15.11-103.333-38.492
				c-7.207-11.68-7.606-24.649-1.155-37.506c23.182-46.196,90.447-72.461,93.299-73.557c1.674-0.643,3.519-0.68,5.217-0.108
				l152.6,51.453c3.931,1.326,6.104,5.529,4.912,9.502c-0.212,0.708-5.378,17.535-21.27,36.323
				c-14.521,17.167-41.229,39.451-86.013,48.127C367.706,439.436,352.817,440.868,338.04,440.868z M329.861,306.705
				c-12.072,5.093-64.391,28.857-82.562,65.067c-4.043,8.059-3.881,15.426,0.498,22.522c11.329,18.36,48.436,31.184,90.237,31.185
				c0.001,0,0.004,0,0.006,0c13.798,0,27.701-1.337,41.324-3.977c32.132-6.225,57.941-20.488,76.711-42.395
				c8.187-9.554,13.186-18.574,15.943-24.471L329.861,306.705z"/>
		</g>
		<path fill="#FFFFFF" d="M417.127,192.605C365.255,202.837,309.4,225.11,298.872,309.798
			c-12.32,99.118,169.017,53.089,218.665,30.676C635.434,287.247,508.362,174.611,417.127,192.605z"/>
		<g>
			<path fill="#0B0B0B" d="M375.977,378.582c-0.003,0-0.005,0-0.009,0c-34.516-0.001-59-7.908-72.775-23.5
				c-10.298-11.658-14.321-27.213-11.958-46.232c11.211-90.186,72.372-113.531,124.402-123.794
				c6.97-1.375,14.322-2.072,21.853-2.072c28.098,0,59.106,9.796,85.074,26.877c26.339,17.325,44.182,39.973,48.953,62.136
				c3.851,17.887,2.369,51.479-50.815,75.49C492.102,360.399,428.292,378.582,375.977,378.582z M437.491,198.374
				c-6.533,0-12.884,0.599-18.875,1.781c-49.861,9.835-102.172,30.666-112.108,110.594c-1.822,14.653,0.867,25.822,8.219,34.145
				c10.574,11.97,31.751,18.298,61.241,18.3c49.484,0.001,111.84-17.741,138.402-29.732c22.717-10.256,48.462-28.683,42.103-58.226
				C548.123,236.445,489.188,198.374,437.491,198.374z"/>
		</g>
		<g>
			<path fill="#0B0B0B" d="M359.562,377.887c-3.143,0-6.093-1.94-7.23-5.064c-23.798-65.343-9.166-111.95,7.299-139.542
				c17.896-29.989,41.39-44.282,42.382-44.876c1.545-0.925,3.367-1.28,5.146-1c1.207,0.189,29.81,5.04,52.681,40.096
				c22.153,33.958,26.31,119.078,26.476,122.685c0.195,4.245-3.087,7.844-7.332,8.04c-4.231,0.198-7.845-3.086-8.042-7.331
				c-0.039-0.842-4.123-84.529-23.993-114.985c-15.313-23.473-32.928-30.671-39.513-32.637c-6.109,4.31-22.29,17.014-34.949,38.5
				c-21.122,35.847-23.038,78.167-5.696,125.785c1.455,3.993-0.604,8.409-4.597,9.863
				C361.326,377.737,360.436,377.887,359.562,377.887z"/>
		</g>
	</g>
	<g>
		<ellipse fill="#0A0B09" cx="512.952" cy="579.448" rx="53.222" ry="60.289"/>
		<path fill="#FEFEFE" d="M480.423,594.653c0,10.679,8.661,19.336,19.339,19.336c10.681,0,19.339-8.657,19.339-19.336
			c0-10.683-8.658-19.339-19.339-19.339C489.084,575.314,480.423,583.971,480.423,594.653z"/>
	</g>
	<g>
		<ellipse fill="#0A0B09" cx="288.223" cy="583.581" rx="53.222" ry="60.291"/>
		<path fill="#FEFEFE" d="M255.694,598.787c0,10.679,8.661,19.336,19.339,19.336c10.681,0,19.339-8.657,19.339-19.336
			c0-10.683-8.659-19.339-19.339-19.339C264.355,579.448,255.694,588.104,255.694,598.787z"/>
	</g>
	<g>
		<path fill="#0B0B0B" d="M392.037,674.146c-8.886,0-17.341-3.246-23.985-9.244c-7.108-6.418-11.292-15.221-11.779-24.785
			c-0.216-4.245,3.049-7.86,7.293-8.077c4.248-0.19,7.86,3.05,8.076,7.293c0.279,5.46,2.666,10.483,6.724,14.146
			c4.057,3.663,9.301,5.526,14.757,5.249c5.458-0.278,10.482-2.665,14.146-6.723c3.664-4.059,5.527-9.298,5.249-14.757
			c-0.217-4.244,3.047-7.86,7.292-8.077c4.238-0.191,7.86,3.048,8.077,7.292c0.489,9.564-2.777,18.747-9.196,25.854
			c-6.418,7.108-15.22,11.292-24.784,11.78C393.281,674.13,392.658,674.146,392.037,674.146z"/>
	</g>
	<g>
		<g>
			<path fill="#0B0B0B" d="M201.118,754.658c-3.226,0-6.046-2.369-6.52-5.655l-14.326-99.385c-0.52-3.606,1.981-6.95,5.587-7.47
				c3.604-0.521,6.949,1.982,7.469,5.587l14.326,99.385c0.52,3.605-1.981,6.949-5.587,7.47
				C201.749,754.636,201.431,754.658,201.118,754.658z"/>
		</g>
		<g>
			<path fill="#0B0B0B" d="M218.007,742.368c-3.226,0-6.046-2.37-6.52-5.655l-7.585-52.599c-0.52-3.605,1.981-6.95,5.586-7.47
				c3.609-0.521,6.949,1.982,7.469,5.587l7.585,52.599c0.52,3.605-1.981,6.949-5.586,7.469
				C218.637,742.346,218.32,742.368,218.007,742.368z"/>
		</g>
		<g>
			<path fill="#0B0B0B" d="M146.642,627.368c-3.226,0-6.046-2.369-6.52-5.655l-14.327-99.388c-0.52-3.605,1.981-6.949,5.587-7.469
				c3.604-0.523,6.949,1.981,7.469,5.587l14.327,99.387c0.52,3.605-1.981,6.949-5.587,7.469
				C147.271,627.346,146.954,627.368,146.642,627.368z"/>
		</g>
		<g>
			<path fill="#0B0B0B" d="M122.09,584.538c-3.227,0-6.046-2.369-6.52-5.655l-9.02-62.568c-0.52-3.605,1.981-6.949,5.587-7.469
				c3.608-0.521,6.949,1.981,7.469,5.587l9.02,62.567c0.52,3.606-1.982,6.95-5.587,7.47
				C122.72,584.516,122.403,584.538,122.09,584.538z"/>
		</g>
		<g>
			<path fill="#0B0B0B" d="M210.604,759.026c-37.568,0-82.761-35.79-112.457-89.06c-17.777-31.883-27.669-65.778-27.856-95.439
				c-0.196-31.087,10.264-54.1,29.453-64.798c7.351-4.099,15.656-6.176,24.685-6.176c37.569,0,82.763,35.79,112.461,89.06
				c17.775,31.886,27.668,65.78,27.854,95.44c0.196,31.087-10.264,54.099-29.453,64.796
				C227.94,756.947,219.634,759.026,210.604,759.026z M124.429,516.745c-6.754,0-12.898,1.516-18.262,4.505
				c-14.792,8.248-22.849,27.14-22.686,53.193c0.174,27.48,9.474,59.122,26.188,89.1c27.011,48.453,68.517,82.292,100.935,82.292
				c6.755,0,12.9-1.516,18.264-4.507c14.793-8.247,22.85-27.137,22.686-53.19c-0.173-27.479-9.473-59.122-26.186-89.101
				C198.356,550.584,156.848,516.745,124.429,516.745z"/>
		</g>
		<g>
			<path fill="#FFFFFF" d="M121.777,651.104c-29.499-52.909-34.855-108.365-15.952-137.046c-0.968,0.443-1.932,0.907-2.87,1.432
				c-35.13,19.589-34.705,87.313,0.953,151.266c35.652,63.955,93.039,99.923,128.171,80.334c6.068-3.383,11.051-8.231,15-14.221
				C211.757,749.061,156.481,713.348,121.777,651.104z"/>
			<g>
				<path fill="#0B0B0B" d="M210.604,759.026c-37.568,0-82.761-35.79-112.457-89.06c-17.777-31.885-27.669-65.778-27.856-95.439
					c-0.196-31.087,10.264-54.1,29.453-64.798c1.232-0.689,2.43-1.254,3.335-1.669c2.675-1.225,5.838-0.53,7.753,1.704
					c1.916,2.233,2.119,5.466,0.5,7.922c-17.986,27.289-11.321,80.832,16.206,130.205c27.008,48.441,68.509,82.271,100.924,82.271
					c5.766,0,11.106-1.106,15.869-3.29c2.676-1.226,5.839-0.532,7.755,1.701c1.916,2.234,2.12,5.468,0.5,7.925
					c-4.641,7.04-10.46,12.54-17.295,16.352C227.94,756.947,219.634,759.026,210.604,759.026z M89.32,540.93
					c-3.912,9.051-5.921,20.371-5.838,33.514c0.174,27.479,9.474,59.122,26.188,89.1c27.011,48.453,68.517,82.292,100.935,82.292
					c5.115,0,9.881-0.869,14.222-2.59c-36.81-2.202-80.067-37.379-108.81-88.93C93.827,614.514,84.505,572.843,89.32,540.93z"/>
			</g>
		</g>
		<g>
			<path fill="#FFFFFF" d="M211.786,593.315C178.06,543,131.094,513.026,96.954,516.834c0.839-0.661,1.686-1.312,2.58-1.905
				c33.412-22.394,93.546,8.76,134.314,69.582c40.771,60.823,46.729,128.287,13.316,150.681c-5.77,3.87-12.349,6.102-19.483,6.898
				C258.156,717.983,251.461,652.518,211.786,593.315z"/>
			<g>
				<path fill="#0B0B0B" d="M227.677,748.686c-2.647,0-5.071-1.595-6.096-4.087c-1.12-2.722-0.301-5.856,2.008-7.682
					c27.566-21.805,19.813-84.577-17.282-139.931c-29.621-44.189-71.171-73.881-103.394-73.881c-1.781,0-3.539,0.096-5.227,0.283
					c-2.927,0.325-5.715-1.327-6.833-4.052c-1.118-2.724-0.293-5.859,2.019-7.683c0.913-0.719,1.909-1.486,3.013-2.22
					c8.271-5.543,18.061-8.36,29.076-8.36c36.997,0,81.889,31.309,114.366,79.764c20.326,30.322,32.958,63.296,35.569,92.844
					c2.736,30.966-5.808,54.757-24.059,66.989c-6.492,4.354-14.037,7.037-22.424,7.974
					C228.166,748.672,227.921,748.686,227.677,748.686z M128.481,514.381c30.737,10.263,63.521,37.574,88.783,75.262
					c19.736,29.449,32.284,61.6,35.334,90.53c1.923,18.231-0.027,34.155-5.547,46.799c11.591-10.193,16.793-28.476,14.703-52.129
					c-2.418-27.374-14.275-58.15-33.386-86.66C199.804,545.564,160.16,516.427,128.481,514.381z"/>
			</g>
		</g>
	</g>
	<g>
		<g>
			<path fill="#FFFFFE" d="M553.437,731.164c0,0-139.102,33.723-139.783,72.641c-0.688,38.924,122.619,73.649,189.091,47.199"/>
		</g>
		<g>
			<g>
				<path fill="#0B0B0B" d="M546.639,867.898c-44.468,0-92.354-12.88-118.774-31.145c-18.363-12.695-22.047-24.998-21.904-33.085
					c0.348-19.866,24.913-38.828,75.099-57.968c34.914-13.316,69.125-21.666,70.564-22.016c4.131-1.006,8.289,1.534,9.291,5.665
					c1.001,4.13-1.535,8.29-5.664,9.291c-0.345,0.084-34.818,8.502-68.83,21.484c-60.071,22.931-64.996,39.333-65.074,43.814
					c-0.108,6.115,5.313,13.272,15.268,20.154c35.234,24.358,115.927,38.604,163.284,19.76c3.948-1.57,8.423,0.355,9.994,4.305
					c1.571,3.948-0.356,8.423-4.305,9.994C588.568,864.927,567.997,867.898,546.639,867.898z"/>
			</g>
		</g>
	</g>
</g>
</svg>
