<?xml version="1.0" encoding="utf-8"?>
<!-- Generator: Adobe Illustrator 16.0.0, SVG Export Plug-In . SVG Version: 6.00 Build 0)  -->
<!DOCTYPE svg PUBLIC "-//W3C//DTD SVG 1.1//EN" "http://www.w3.org/Graphics/SVG/1.1/DTD/svg11.dtd">
<svg version="1.1" id="Layer_1" xmlns="http://www.w3.org/2000/svg" xmlns:xlink="http://www.w3.org/1999/xlink" x="0px" y="0px"
	 width="1000px" height="1000px" viewBox="0 0 1000 1000" enable-background="new 0 0 1000 1000" xml:space="preserve">
<g>
	<g>
		<g>
			<path fill="#FFFFFE" d="M374.477,646.309c0,0-79.083,57.559-64.751,93.749c14.328,36.194,105.146,47.899,156.341-2.073"/>
		</g>
		<g>
			<g>
				<path fill="#0B0B0B" d="M379.281,779.097c-9.963,0-19.29-1.027-27.465-2.772c-24.996-5.335-42.945-17.521-49.245-33.436
					c-7.145-18.041,2.471-41.114,28.579-68.579c18.252-19.2,37.969-33.618,38.799-34.223c3.436-2.502,8.246-1.744,10.747,1.692
					c2.502,3.435,1.745,8.247-1.689,10.748c-28.705,20.915-70.955,62.403-62.126,84.697c4.307,10.881,18.568,19.87,38.148,24.049
					c31.109,6.641,75.845,0.312,105.663-28.795c3.041-2.97,7.912-2.91,10.881,0.131s2.91,7.912-0.131,10.881
					C444.322,769.962,408.987,779.096,379.281,779.097z"/>
			</g>
		</g>
	</g>
	<g>
		<path fill="#FFFFFF" d="M723.561,810.821c-26.588,15.133-103.335,29.853-209.427,9.185
			c-106.091-20.668-155.695-94.609-110.227-225.502c0,0,233.008-70.204,300.366-35.824
			C760.581,587.421,815.552,758.463,723.561,810.821z"/>
		<g>
			<path fill="#0B0B0B" d="M614.828,837.897c-32.577,0-66.951-3.479-102.166-10.339c-55.295-10.772-94.107-34.968-115.361-71.912
				c-23.795-41.364-24.018-96.431-0.662-163.667c0.81-2.331,2.688-4.131,5.049-4.843c6.184-1.863,152.526-45.63,246.646-45.63
				c26.391,0,45.834,3.376,59.438,10.32c18.104,9.24,35.794,30.811,49.81,60.737c14.017,29.923,22.126,63.58,22.835,94.769
				c1.157,50.917-17.682,90.046-53.049,110.176C710.049,827.365,671.391,837.897,614.828,837.897z M409.9,600.762
				c-20.548,61.113-20.304,110.629,0.74,147.211c18.93,32.904,54.244,54.6,104.964,64.48c34.249,6.671,67.632,10.055,99.224,10.055
				c53.618,0,90.033-9.898,104.926-18.375c38.733-22.045,46.001-64.617,45.276-96.449c-1.439-63.322-35.111-127.274-64.255-142.15
				c-11.229-5.731-28.874-8.638-52.442-8.638C564.661,556.896,433.729,593.83,409.9,600.762z"/>
		</g>
	</g>
	<g>
		<path fill="#FFFFFE" d="M624.29,808.849c4.191,6.251,23.822,87.523,62.939,91.891c45.402,5.066,94.206-41.621,110.174-141.444"/>
		<g>
			<defs>
				<path id="SVGID_1_" d="M624.29,808.849c4.191,6.251,23.822,87.523,62.939,91.891c45.402,5.066,94.206-41.621,110.174-141.444"/>
			</defs>
			<clipPath id="SVGID_2_">
				<use xlink:href="#SVGID_1_"  overflow="visible"/>
			</clipPath>
		</g>
		<g>
			<path fill="#0B0B0B" d="M693.757,908.795c-2.479,0-4.939-0.136-7.38-0.408c-36.725-4.1-54.225-50.26-61.696-69.971
				c-1.052-2.774-2.24-5.911-2.718-6.784c-2.277-3.52-1.32-8.228,2.174-10.571c3.532-2.369,8.311-1.424,10.678,2.104
				c1.197,1.787,2.17,4.294,4.256,9.796c6.476,17.078,21.638,57.074,49.013,60.131c20.692,2.304,41.797-7.884,59.394-28.707
				c20.435-24.184,35.072-60.943,42.328-106.305c0.673-4.197,4.631-7.048,8.813-6.383c4.196,0.671,7.054,4.617,6.383,8.813
				C788.429,864.108,738.461,908.793,693.757,908.795z"/>
		</g>
	</g>
	<g>
		<path fill="#FFFFFE" d="M563.728,807.828c-3.863,6.217-21.589,87.293-58.024,91.382c-42.284,4.741-88.107-54.658-103.695-154.52"
			/>
		<g>
			<defs>
				<path id="SVGID_3_" d="M563.728,807.828c-3.863,6.217-21.589,87.293-58.024,91.382c-42.284,4.741-88.107-54.658-103.695-154.52"
					/>
			</defs>
			<clipPath id="SVGID_4_">
				<use xlink:href="#SVGID_3_"  overflow="visible"/>
			</clipPath>
		</g>
		<g>
			<path fill="#0B0B0B" d="M500.926,907.172c-22.194,0-44.502-14.566-63.389-41.587c-20.592-29.462-35.507-70.856-43.132-119.708
				c-0.655-4.199,2.217-8.134,6.416-8.789c4.196-0.662,8.134,2.216,8.789,6.416c15.817,101.33,60.881,151.899,95.235,148.06
				c25.032-2.809,38.836-42.532,44.73-59.495c1.902-5.474,2.79-7.969,3.894-9.744c2.244-3.609,6.986-4.719,10.598-2.473
				c3.572,2.221,4.694,6.894,2.539,10.488c-0.44,0.875-1.53,4.01-2.493,6.78c-6.848,19.704-22.882,65.847-57.552,69.736
				C504.686,907.067,502.806,907.172,500.926,907.172z"/>
		</g>
	</g>
	<g>
		<path fill="#FFFFFF" d="M271.431,691.931c0,0,74.735,93.751,101.775,83.803c27.04-9.951-79.397-103.072-79.397-103.072"/>
		<g>
			<path fill="#0B0B0B" d="M368.626,783.141c-10.293,0-27.779-7.386-61.125-40.928c-22.063-22.194-41.038-45.934-41.228-46.171
				c-2.271-2.848-1.802-6.997,1.046-9.269c2.849-2.27,6.999-1.802,9.269,1.046c0.185,0.232,18.77,23.479,40.336,45.163
				c39.108,39.32,51.85,37.352,54.005,36.562c0.034-0.014,0.064-0.025,0.092-0.036c0.099-1.875-1.296-12.981-38.023-50.598
				c-21.155-21.669-43.311-41.092-43.532-41.285c-2.742-2.398-3.019-6.565-0.621-9.308c2.399-2.741,6.564-3.02,9.306-0.62
				c0.221,0.193,22.356,19.596,43.703,41.402c40.087,40.949,43.558,55.223,42.103,63.081c-0.849,4.583-3.857,8.043-8.474,9.742
				C373.6,782.616,371.368,783.141,368.626,783.141z"/>
		</g>
	</g>
	<g>
		<path fill="#FFFFFF" d="M608.784,566.48c0,0,45.571,58.669,56.951,91.298c11.382,32.631,57.408,169.76,155.496,79.185
			c98.089-90.574-92.64-346.519-231.746-234.22"/>
		<g>
			<path fill="#0B0B0B" d="M749.942,606.563c-0.317,0-0.638-0.022-0.955-0.07l-80.215-11.744c-3.079-0.451-5.423-2.991-5.626-6.096
				l-5.799-88.651c-0.134-2.04,0.687-4.028,2.222-5.38l27.312-24.052c2.734-2.405,6.9-2.143,9.31,0.591
				c2.407,2.733,2.143,6.901-0.591,9.309l-24.878,21.908l5.24,80.093l72.379,10.597l50.76-34.843c3-2.063,7.107-1.3,9.169,1.705
				c2.063,3.002,1.3,7.108-1.704,9.169l-52.891,36.307C752.57,606.163,751.268,606.563,749.942,606.563z"/>
		</g>
		<g>
			<path fill="#0B0B0B" d="M759.048,775.12c-5.102,0-10.128-0.618-15.086-1.858c-50.574-12.649-76.509-87.145-85.03-111.624
				l-0.461-1.325c-10.841-31.079-55.315-88.535-55.764-89.111c-2.606-3.355-2-8.189,1.357-10.797
				c3.355-2.606,8.19-1.999,10.797,1.356c1.893,2.436,46.479,60.05,58.14,93.483l0.465,1.334
				c7.846,22.537,31.722,91.122,74.231,101.754c20.392,5.104,43.373-3.992,68.313-27.022c26.514-24.481,26.794-59.027,22.36-83.695
				c-5.92-32.94-24.165-69.025-50.054-99.001c-46.125-53.408-124.609-95.899-193.998-39.884c-3.308,2.671-8.152,2.152-10.821-1.152
				c-2.669-3.308-2.153-8.151,1.153-10.821c33.982-27.433,73.885-36.075,115.396-24.993c35.395,9.448,70.878,33.168,99.918,66.79
				c53.229,61.631,80.6,154.096,26.486,204.063C803.04,764.234,780.435,775.12,759.048,775.12z"/>
		</g>
		<path fill="#FFFFFF" d="M842.174,696.57c-104.466,96.461-153.481-49.579-165.607-84.328c-12.117-34.751-60.65-97.233-60.65-97.233
			l-8.15-26.927c-10.346,4.668-20.55,10.919-30.508,18.957l20.55,67.879c0,0,48.536,62.483,60.654,97.232
			c12.12,34.75,61.141,180.789,165.604,84.33c20.215-18.666,28.902-43.926,28.712-71.661
			C849.673,688.969,846.15,692.899,842.174,696.57z"/>
		<g>
			<path fill="#0B0B0B" d="M757.847,796.613c-64.206,0-95.784-90.715-106.162-120.524l-0.488-1.404
				c-11.562-33.154-58.987-94.431-59.466-95.046c-0.577-0.744-1.014-1.589-1.287-2.49l-20.549-67.88
				c-0.908-2.999,0.092-6.249,2.531-8.217c10.186-8.223,21.011-14.946,32.175-19.983c2.02-0.91,4.333-0.907,6.348,0.009
				c2.018,0.916,3.54,2.657,4.183,4.775l7.74,25.574c6.878,8.949,49.339,64.95,60.96,98.282l0.504,1.445
				c9.489,27.246,38.363,110.161,91.619,110.161c18.632,0,39.155-10.228,60.999-30.397c3.546-3.274,6.798-6.877,9.663-10.708
				c1.979-2.646,5.431-3.735,8.564-2.7c3.14,1.031,5.27,3.953,5.292,7.257c0.216,31.575-10.568,58.329-31.188,77.366
				C804.508,785.013,780.473,796.613,757.847,796.613z M604.763,571.336c6.879,8.95,49.342,64.951,60.964,98.28l0.493,1.413
				c9.487,27.255,38.358,110.195,91.627,110.195c18.632,0,39.155-10.228,60.998-30.397c12.861-11.876,21.038-26.923,24.435-44.902
				c-23.325,20.431-45.953,30.78-67.325,30.78c-64.192,0-95.773-90.689-106.152-120.49l-0.501-1.438
				c-11.568-33.178-58.983-94.434-59.461-95.049c-0.579-0.744-1.015-1.589-1.288-2.49l-5.519-18.229
				c-5.761,3.115-11.406,6.744-16.88,10.854L604.763,571.336z"/>
		</g>
		<g>
			<path fill="#0B0B0B" d="M809.896,721.438c-0.765,0-1.543-0.134-2.302-0.416l-47.861-17.828c-2.652-0.989-4.38-3.562-4.289-6.391
				l2.598-81.872c0.065-2.05,1.08-3.953,2.746-5.148l47.272-33.934c2.959-2.126,7.08-1.449,9.204,1.511s1.447,7.08-1.512,9.204
				l-44.63,32.037l-2.344,73.885L812.2,708.66c3.412,1.271,5.149,5.07,3.878,8.483C815.089,719.798,812.572,721.438,809.896,721.438
				z"/>
		</g>
		<g>
			<path fill="#0B0B0B" d="M738.582,716.724c-0.171,0-0.342-0.006-0.515-0.019c-3.631-0.28-6.35-3.451-6.069-7.083l6.469-83.929
				l-63.283-9.648c-3.602-0.55-6.075-3.914-5.526-7.515c0.55-3.602,3.915-6.074,7.514-5.526l69.337,10.571
				c3.412,0.521,5.847,3.586,5.582,7.027l-6.939,90.032C744.883,714.095,741.993,716.724,738.582,716.724z"/>
		</g>
		<g>
			<path fill="#0B0B0B" d="M646.064,561.352c-3.569,0-6.505-2.85-6.591-6.438l-1.171-49.04l-25.753-7.319
				c-3.504-0.996-5.537-4.645-4.541-8.148c0.995-3.503,4.643-5.536,8.148-4.54l30.427,8.648c2.779,0.79,4.721,3.298,4.789,6.188
				l1.287,53.896c0.088,3.643-2.794,6.664-6.436,6.751C646.172,561.351,646.118,561.352,646.064,561.352z"/>
		</g>
	</g>
	<g>
		<path fill="#FFFFFF" d="M431.41,196.5c-257.203,28.649-239.55,287.761-225.44,361.714
			c17.208,90.223,156.512,118.288,264.348,104.892c70.15-8.714,269.45-11.567,257.177-221.272
			C715.218,232.126,577.732,180.204,431.41,196.5z"/>
		<g>
			<path fill="#0B0B0B" d="M418.303,673.964c-52.435,0-102.127-9.276-139.923-26.122c-45.15-20.123-72.803-50.617-79.969-88.186
				c-2.574-13.488-10.56-62.033-5.275-120.367c5.565-61.431,23.526-113.098,53.385-153.565
				c40.738-55.214,102.658-87.807,184.037-96.871c16.86-1.877,33.422-2.83,49.224-2.83c71.504,0,129.519,18.859,172.431,56.053
				c49.836,43.196,77.749,110.252,82.963,199.308c5.063,86.491-24.699,149.119-88.458,186.146
				c-52.37,30.413-115.436,36.914-157.169,41.216c-6.652,0.686-12.936,1.333-18.283,1.997
				C454.053,672.88,436.233,673.964,418.303,673.964z M479.782,201.412c-15.235,0-31.224,0.92-47.521,2.736
				c-76.943,8.57-135.269,39.09-173.356,90.712c-73.632,99.795-48.487,245.613-45.377,261.912
				c14.332,75.141,119.268,101.802,204.775,101.802c17.299,0,34.479-1.044,51.066-3.104c5.507-0.686,11.867-1.34,18.602-2.035
				c40.423-4.167,101.509-10.463,151.02-39.215c59.146-34.348,85.584-90.59,80.822-171.938
				C708.158,243.201,582.85,201.412,479.782,201.412z"/>
		</g>
	</g>
	<g>
		<g>
			<g>
				<path fill="#0B0B0B" d="M378.068,134.907c-0.002,0-0.004,0-0.006,0c-25.794-0.001-41.075-4.939-46.715-15.096
					c-2.609-4.699-4.252-12.658,2.739-23.886c7.498-12.041,16.837-14.568,23.352-14.568c24.532,0,49.041,36.092,51.755,40.208
					c1.466,2.222,1.679,5.042,0.563,7.459c-1.114,2.417-3.398,4.085-6.039,4.413C403.232,133.496,391.703,134.907,378.068,134.907z
					 M357.438,96.746c-2.461,0-6.206,0.758-10.288,7.313c-1.104,1.773-3.543,6.129-2.349,8.28c0.408,0.735,4.807,7.177,33.261,7.178
					c0.001,0,0.004,0,0.006,0c3.616,0,7.09-0.109,10.213-0.265C379.04,108.129,366.628,96.746,357.438,96.746z"/>
			</g>
			<g>
				<path fill="#0B0B0B" d="M402.768,133.495c-2.376,0-4.637-1.102-6.102-3.009c-1.621-2.11-2.035-4.909-1.098-7.399
					c1.978-5.246,20.097-51.256,47.053-51.256c7.289,0,14.201,3.254,20.542,9.671c9.788,9.905,9.533,18.392,7.595,23.768
					c-3.627,10.06-16.109,17.609-38.159,23.078c-14.757,3.661-28.49,5.052-29.067,5.11
					C403.276,133.482,403.021,133.495,402.768,133.495z M442.621,87.22c-9.631,0-20.28,15.583-27.166,29.072
					c19.802-3.443,38.519-9.838,40.826-16.245c0.861-2.392-2.556-6.202-4.064-7.729C448.873,88.935,445.645,87.22,442.621,87.22z"/>
			</g>
		</g>
		<path fill="#FFFFFF" d="M324.532,228.055c0,0-67.068,25.76-89.181,69.824c-22.107,44.061,57.964,76.706,140.405,60.735
			c82.437-15.971,101.376-79.106,101.376-79.106L324.532,228.055z"/>
		<g>
			<path fill="#0B0B0B" d="M332.97,370.426c-0.002,0-0.004,0-0.006,0c-48.345-0.001-88.906-15.11-103.333-38.492
				c-7.207-11.68-7.606-24.649-1.155-37.506c23.182-46.196,90.446-72.461,93.299-73.556c1.674-0.644,3.519-0.681,5.217-0.108
				l152.601,51.453c3.932,1.326,6.104,5.529,4.912,9.502c-0.212,0.708-5.378,17.535-21.27,36.323
				c-14.521,17.167-41.229,39.451-86.013,48.127C362.636,368.993,347.747,370.426,332.97,370.426z M324.791,236.263
				c-12.072,5.093-64.391,28.856-82.562,65.067c-4.044,8.059-3.881,15.426,0.498,22.522c11.329,18.36,48.436,31.184,90.237,31.185
				c0.001,0,0.004,0,0.006,0c13.798,0,27.701-1.337,41.324-3.977c32.132-6.225,57.941-20.489,76.71-42.395
				c8.188-9.555,13.187-18.574,15.943-24.472L324.791,236.263z"/>
		</g>
		<path fill="#FFFFFF" d="M412.057,122.163c-51.872,10.231-107.728,32.505-118.255,117.193
			c-12.32,99.118,169.018,53.089,218.665,30.676C630.363,216.805,503.291,104.169,412.057,122.163z"/>
		<g>
			<path fill="#0B0B0B" d="M370.907,308.14c-0.003,0-0.005,0-0.009,0c-34.516-0.001-59-7.908-72.775-23.501
				c-10.298-11.658-14.321-27.212-11.958-46.232c11.211-90.185,72.372-113.531,124.403-123.793
				c6.97-1.375,14.322-2.072,21.853-2.072c28.099,0,59.106,9.796,85.074,26.877c26.339,17.326,44.182,39.973,48.953,62.136
				c3.851,17.887,2.369,51.479-50.815,75.49C487.031,289.957,423.222,308.14,370.907,308.14z M432.421,127.931
				c-6.533,0-12.884,0.6-18.875,1.781c-49.861,9.835-102.172,30.666-112.108,110.594c-1.822,14.653,0.867,25.823,8.219,34.146
				c10.574,11.97,31.751,18.298,61.241,18.299c49.483,0.001,111.84-17.74,138.401-29.731c22.718-10.257,48.463-28.684,42.104-58.226
				C543.053,166.003,484.117,127.931,432.421,127.931z"/>
		</g>
		<g>
			<path fill="#0B0B0B" d="M354.491,307.445c-3.143,0-6.093-1.94-7.23-5.063c-23.798-65.343-9.166-111.951,7.299-139.543
				c17.896-29.989,41.39-44.282,42.381-44.876c1.546-0.925,3.367-1.279,5.146-1c1.207,0.189,29.81,5.04,52.681,40.096
				c22.153,33.957,26.31,119.078,26.476,122.685c0.196,4.245-3.086,7.844-7.331,8.041c-4.229,0.188-7.845-3.086-8.042-7.332
				c-0.038-0.841-4.122-84.528-23.992-114.985c-15.313-23.473-32.928-30.671-39.513-32.636c-6.109,4.31-22.29,17.014-34.95,38.5
				c-21.121,35.847-23.038,78.167-5.696,125.784c1.455,3.994-0.604,8.409-4.597,9.863
				C356.255,307.294,355.366,307.445,354.491,307.445z"/>
		</g>
	</g>
	<g>
		<ellipse fill="#0A0B09" cx="507.881" cy="509.006" rx="53.222" ry="60.29"/>
		<path fill="#FEFEFE" d="M475.353,524.212c0,10.678,8.661,19.335,19.339,19.335c10.682,0,19.34-8.657,19.34-19.335
			c0-10.684-8.658-19.34-19.34-19.34C484.014,504.872,475.353,513.528,475.353,524.212z"/>
	</g>
	<g>
		<ellipse fill="#0A0B09" cx="283.153" cy="513.139" rx="53.222" ry="60.291"/>
		<path fill="#FEFEFE" d="M250.624,528.345c0,10.679,8.661,19.336,19.339,19.336c10.681,0,19.339-8.657,19.339-19.336
			c0-10.683-8.659-19.339-19.339-19.339C259.285,509.006,250.624,517.662,250.624,528.345z"/>
	</g>
	<g>
		<path fill="#0B0B0B" d="M386.967,603.704c-8.886,0-17.341-3.245-23.986-9.244c-7.108-6.418-11.292-15.221-11.779-24.785
			c-0.216-4.245,3.049-7.86,7.293-8.077c4.238-0.197,7.86,3.05,8.076,7.293c0.278,5.46,2.666,10.484,6.724,14.146
			c4.057,3.664,9.296,5.529,14.757,5.249c5.458-0.277,10.482-2.665,14.146-6.723s5.527-9.298,5.249-14.756
			c-0.217-4.245,3.048-7.861,7.292-8.078c4.245-0.198,7.86,3.049,8.077,7.292c0.488,9.564-2.777,18.747-9.195,25.854
			c-6.419,7.108-15.221,11.292-24.785,11.78C388.211,603.688,387.587,603.704,386.967,603.704z"/>
	</g>
	<g>
		<g>
			<path fill="#0B0B0B" d="M246.086,708.456c-2.827,0-5.442-1.832-6.308-4.679l-29.224-96.065c-1.06-3.484,0.905-7.169,4.39-8.229
				c3.485-1.059,7.169,0.905,8.229,4.391l29.224,96.066c1.061,3.484-0.905,7.168-4.39,8.229
				C247.369,708.362,246.722,708.456,246.086,708.456z"/>
		</g>
		<g>
			<path fill="#0B0B0B" d="M260.917,693.747c-2.828,0-5.442-1.832-6.308-4.677l-15.47-50.84c-1.06-3.486,0.905-7.17,4.39-8.23
				c3.485-1.058,7.169,0.904,8.229,4.39l15.47,50.84c1.06,3.485-0.905,7.17-4.39,8.23
				C262.2,693.654,261.553,693.747,260.917,693.747z"/>
		</g>
		<g>
			<path fill="#0B0B0B" d="M172.946,590.893c-2.828,0-5.442-1.832-6.308-4.678l-29.225-96.067c-1.06-3.484,0.905-7.169,4.39-8.229
				c3.484-1.063,7.169,0.906,8.229,4.391l29.225,96.067c1.06,3.484-0.906,7.169-4.391,8.229
				C174.229,590.8,173.582,590.893,172.946,590.893z"/>
		</g>
		<g>
			<path fill="#0B0B0B" d="M142.187,552.279c-2.827,0-5.442-1.833-6.308-4.679l-18.398-60.479c-1.06-3.484,0.906-7.169,4.391-8.229
				c3.483-1.062,7.169,0.906,8.229,4.391l18.398,60.479c1.061,3.484-0.905,7.169-4.39,8.229
				C143.47,552.186,142.823,552.279,142.187,552.279z"/>
		</g>
		<g>
			<path fill="#0B0B0B" d="M247.471,711.975c-36.011,0-81.154-28.145-115.008-71.701c-22.403-28.821-37.319-60.825-42-90.116
				c-4.905-30.697,1.946-55.029,19.292-68.513c9.016-7.007,20.156-10.56,33.112-10.56c36.011,0,81.156,28.144,115.012,71.7
				c22.403,28.822,37.318,60.827,41.998,90.117c4.905,30.697-1.947,55.027-19.292,68.511
				C271.569,708.421,260.428,711.975,247.471,711.975z M142.867,484.276c-9.955,0-18.371,2.618-25.017,7.783
				c-13.371,10.395-18.472,30.288-14.361,56.017c4.336,27.136,18.324,57.004,39.389,84.102
				c31.448,40.462,72.503,66.606,104.593,66.606c9.955,0,18.372-2.62,25.018-7.786c13.372-10.394,18.473-30.287,14.362-56.014
				c-4.336-27.136-18.324-57.004-39.388-84.104C216.014,510.42,174.958,484.276,142.867,484.276z"/>
		</g>
		<g>
			<path fill="#FFFFFF" d="M152.961,618.047c-37.177-47.827-50.877-101.83-36.539-133.045c-0.89,0.585-1.771,1.189-2.619,1.85
				c-31.756,24.687-21.071,91.563,23.868,149.374c44.934,57.813,107.109,84.667,138.867,59.979
				c5.485-4.264,9.676-9.812,12.671-16.329C256.748,701.234,196.697,674.312,152.961,618.047z"/>
			<g>
				<path fill="#0B0B0B" d="M247.471,711.975c-36.011,0-81.154-28.145-115.008-71.701c-22.403-28.821-37.319-60.825-42-90.116
					c-4.905-30.697,1.946-55.029,19.292-68.513c1.114-0.868,2.212-1.607,3.044-2.154c2.458-1.615,5.69-1.409,7.921,0.509
					c2.231,1.918,2.923,5.082,1.695,7.756c-13.642,29.699,1.061,81.612,35.753,126.243c31.443,40.451,72.492,66.588,104.577,66.588
					c8.881,0,16.565-2.092,22.838-6.221c2.459-1.616,5.691-1.41,7.923,0.508c2.232,1.918,2.924,5.083,1.695,7.758
					c-3.521,7.661-8.439,13.98-14.617,18.782C271.569,708.421,260.428,711.975,247.471,711.975z M104.18,514.064
					c-2.495,9.539-2.765,21.033-0.691,34.012c4.336,27.136,18.324,57.004,39.389,84.102c31.448,40.462,72.503,66.606,104.593,66.606
					c8.189,0,15.337-1.772,21.315-5.277c-1.968,0.181-3.983,0.271-6.042,0.271c-36.005,0-81.142-28.137-114.991-71.683
					C119.788,586.116,104.258,546.338,104.18,514.064z"/>
			</g>
		</g>
		<g>
			<path fill="#FFFFFF" d="M233.17,547.284c-40.961-44.623-91.927-67.132-125.096-58.193c0.729-0.781,1.467-1.552,2.261-2.274
				c29.632-27.199,93.793-5.52,143.309,48.421c49.519,53.941,65.632,119.723,36,146.922c-5.117,4.699-11.282,7.903-18.213,9.771
				C297.9,663.484,281.361,599.789,233.17,547.284z"/>
			<g>
				<path fill="#0B0B0B" d="M271.43,698.527c-2.27,0-4.434-1.178-5.648-3.192c-1.52-2.521-1.185-5.742,0.82-7.896
					c23.943-25.731,6.766-86.604-38.291-135.694c-32.338-35.229-73.452-57.991-104.743-57.991c-4.942,0-9.577,0.574-13.778,1.706
					c-2.843,0.764-5.85-0.445-7.368-2.969c-1.518-2.523-1.179-5.747,0.83-7.899c0.793-0.85,1.662-1.759,2.643-2.652
					c9.583-8.796,22.77-13.455,38.116-13.455c35.349,0,79.219,23.869,114.491,62.294c24.687,26.892,42.17,57.568,49.229,86.379
					c7.397,30.195,2.558,55.006-13.628,69.861c-5.757,5.288-12.808,9.084-20.956,11.281
					C272.578,698.452,272.001,698.527,271.43,698.527z M138.665,481.904c32.21,5.529,68.983,27.822,99.365,60.919
					c23.971,26.117,41.248,55.994,48.647,84.129c4.664,17.729,5.151,33.766,1.611,47.1c9.912-11.833,12.283-30.692,6.633-53.755
					c-6.54-26.692-22.924-55.315-46.135-80.6c-32.355-35.247-73.481-58.022-104.773-58.022
					C142.176,481.675,140.394,481.751,138.665,481.904z"/>
			</g>
		</g>
	</g>
	<g>
		<g>
			<path fill="#FFFFFE" d="M569.414,650.646c0,0-79.082,57.557-64.75,93.745c14.328,36.197,105.145,47.902,156.34-2.07"/>
		</g>
		<g>
			<g>
				<path fill="#0B0B0B" d="M574.221,783.433c-9.963,0.001-19.291-1.026-27.467-2.772c-24.996-5.335-42.944-17.522-49.244-33.437
					c-7.145-18.04,2.471-41.113,28.578-68.577c18.252-19.2,37.968-33.618,38.799-34.223c3.436-2.499,8.247-1.741,10.747,1.693
					c2.502,3.435,1.745,8.247-1.69,10.748c-28.705,20.914-70.954,62.4-62.125,84.693c4.308,10.881,18.568,19.873,38.148,24.052
					c31.104,6.64,75.844,0.312,105.662-28.795c3.042-2.971,7.913-2.91,10.881,0.131c2.969,3.041,2.91,7.913-0.131,10.881
					C639.26,774.299,603.926,783.433,574.221,783.433z"/>
			</g>
		</g>
	</g>
	<g>
		
			<ellipse transform="matrix(0.8034 -0.5954 0.5954 0.8034 -384.9801 341.4067)" fill="#FFFFFF" cx="324.519" cy="753.697" rx="48.569" ry="56.613"/>
		<g>
			<path fill="#0B0B0B" d="M332.077,815.297c-19.996,0-39.72-10.504-52.761-28.098c-10.098-13.624-15.034-29.875-13.9-45.76
				c1.166-16.327,8.557-30.322,20.813-39.405c8.769-6.499,19.397-9.936,30.733-9.936c19.997,0,39.72,10.504,52.759,28.097
				c10.099,13.624,15.036,29.874,13.902,45.76c-1.165,16.328-8.556,30.322-20.812,39.406
				C354.041,811.861,343.413,815.297,332.077,815.297z M316.962,707.488c-8.012,0-15.471,2.389-21.57,6.909
				c-8.591,6.368-13.786,16.36-14.626,28.139c-0.873,12.22,3.003,24.827,10.913,35.5c10.152,13.695,25.253,21.872,40.397,21.872
				c8.012,0,15.471-2.39,21.571-6.911c8.59-6.367,13.784-16.358,14.625-28.137c0.872-12.221-3.004-24.829-10.916-35.5
				C347.208,715.663,332.106,707.488,316.962,707.488z"/>
		</g>
	</g>
</g>
</svg>
