<?xml version="1.0" encoding="UTF-8" standalone="no"?>
<!-- Created with Vectornator (http://vectornator.io/) -->

<svg
   height="20.0mm"
   stroke-miterlimit="10"
   style="clip-rule:evenodd;fill-rule:nonzero;stroke-linecap:round;stroke-linejoin:round"
   version="1.1"
   viewBox="0 0 18.5 20.0"
   width="18.5mm"
   xml:space="preserve"
   id="svg317"
   sodipodi:docname="turtle-01.inverted.svg"
   inkscape:version="1.1.2 (0a00cf5, 2022-02-04)"
   xmlns:inkscape="http://www.inkscape.org/namespaces/inkscape"
   xmlns:sodipodi="http://sodipodi.sourceforge.net/DTD/sodipodi-0.dtd"
   xmlns="http://www.w3.org/2000/svg"
   xmlns:svg="http://www.w3.org/2000/svg"
   xmlns:vectornator="http://vectornator.io"><sodipodi:namedview
   id="namedview319"
   pagecolor="#505050"
   bordercolor="#eeeeee"
   borderopacity="1"
   inkscape:pageshadow="0"
   inkscape:pageopacity="0"
   inkscape:pagecheckerboard="0"
   showgrid="false"
   inkscape:zoom="13.655646"
   inkscape:cx="26.582411"
   inkscape:cy="37.383804"
   inkscape:window-width="3375"
   inkscape:window-height="1416"
   inkscape:window-x="65"
   inkscape:window-y="24"
   inkscape:window-maximized="1"
   inkscape:current-layer="g542"
   inkscape:document-units="mm" />
<defs
   id="defs188" />

<g
   inkscape:label="[fixed] BG"
   inkscape:groupmode="layer"
   sodipodi:insensitive="true"
   id="g536"><rect
     x="0"
     y="0"
     width="19"
     height="20"
     style="fill:#ffffff;fill-opacity:1;stroke:none"
     id="rect534" /></g><g
   inkscape:label="F.Cu"
   inkscape:groupmode="layer"
   id="g538" /><g
   inkscape:label="F.Mask"
   inkscape:groupmode="layer"
   id="g540" /><g
   inkscape:label="F.SilkS"
   inkscape:groupmode="layer"
   id="g542"
   style="display:inline"><g
     id="Untitled"
     vectornator:layerName="Untitled"
     transform="matrix(0.02389589,0,0,0.02389589,-2.124738,-1.7164657)"
     style="clip-rule:evenodd;fill-rule:nonzero;stroke-linecap:round;stroke-linejoin:round"><g
       opacity="1"
       id="g314"><g
         opacity="1"
         id="g194"><path
           d="m 374.477,646.309 c 0,0 -79.083,57.559 -64.751,93.749 14.328,36.194 105.146,47.899 156.341,-2.073"
           fill="#000000"
           fill-rule="nonzero"
           opacity="1"
           stroke="none"
           id="path190" /><path
           d="m 379.281,779.097 c -9.963,0 -19.29,-1.027 -27.465,-2.772 -24.996,-5.335 -42.945,-17.521 -49.245,-33.436 -7.145,-18.041 2.471,-41.114 28.579,-68.579 18.252,-19.2 37.969,-33.618 38.799,-34.223 3.436,-2.502 8.246,-1.744 10.747,1.692 2.502,3.435 1.745,8.247 -1.689,10.748 -28.705,20.915 -70.955,62.403 -62.126,84.697 4.307,10.881 18.568,19.87 38.148,24.049 31.109,6.641 75.845,0.312 105.663,-28.795 3.041,-2.97 7.912,-2.91 10.881,0.131 2.969,3.041 2.91,7.912 -0.131,10.881 -27.12,26.472 -62.455,35.606 -92.161,35.607 z"
           fill="#ffffff"
           fill-rule="nonzero"
           opacity="1"
           stroke="none"
           id="path192" /></g><g
         opacity="1"
         id="g200"><path
           d="m 723.561,810.821 c -26.588,15.133 -103.335,29.853 -209.427,9.185 -106.091,-20.668 -155.695,-94.609 -110.227,-225.502 0,0 233.008,-70.204 300.366,-35.824 56.308,28.741 111.279,199.783 19.288,252.141 z"
           fill="#000000"
           fill-rule="nonzero"
           opacity="1"
           stroke="none"
           id="path196" /><path
           d="m 614.828,837.897 c -32.577,0 -66.951,-3.479 -102.166,-10.339 -55.295,-10.772 -94.107,-34.968 -115.361,-71.912 -23.795,-41.364 -24.018,-96.431 -0.662,-163.667 0.81,-2.331 2.688,-4.131 5.049,-4.843 6.184,-1.863 152.526,-45.63 246.646,-45.63 26.391,0 45.834,3.376 59.438,10.32 18.104,9.24 35.794,30.811 49.81,60.737 14.017,29.923 22.126,63.58 22.835,94.769 1.157,50.917 -17.682,90.046 -53.049,110.176 -17.319,9.857 -55.977,20.389 -112.54,20.389 z M 409.9,600.762 c -20.548,61.113 -20.304,110.629 0.74,147.211 18.93,32.904 54.244,54.6 104.964,64.48 34.249,6.671 67.632,10.055 99.224,10.055 53.618,0 90.033,-9.898 104.926,-18.375 38.733,-22.045 46.001,-64.617 45.276,-96.449 -1.439,-63.322 -35.111,-127.274 -64.255,-142.15 -11.229,-5.731 -28.874,-8.638 -52.442,-8.638 -83.672,0 -214.604,36.934 -238.433,43.866 z"
           fill="#ffffff"
           fill-rule="nonzero"
           opacity="1"
           stroke="none"
           id="path198" /></g><g
         opacity="1"
         id="g206"><path
           d="m 624.29,808.849 c 4.191,6.251 23.822,87.523 62.939,91.891 45.402,5.066 94.206,-41.621 110.174,-141.444"
           fill="#000000"
           fill-rule="nonzero"
           opacity="1"
           stroke="none"
           id="path202" /><path
           d="m 693.757,908.795 c -2.479,0 -4.939,-0.136 -7.38,-0.408 -36.725,-4.1 -54.225,-50.26 -61.696,-69.971 -1.052,-2.774 -2.24,-5.911 -2.718,-6.784 -2.277,-3.52 -1.32,-8.228 2.174,-10.571 3.532,-2.369 8.311,-1.424 10.678,2.104 1.197,1.787 2.17,4.294 4.256,9.796 6.476,17.078 21.638,57.074 49.013,60.131 20.692,2.304 41.797,-7.884 59.394,-28.707 20.435,-24.184 35.072,-60.943 42.328,-106.305 0.673,-4.197 4.631,-7.048 8.813,-6.383 4.196,0.671 7.054,4.617 6.383,8.813 -16.573,103.598 -66.541,148.283 -111.245,148.285 z"
           fill="#ffffff"
           fill-rule="nonzero"
           opacity="1"
           stroke="none"
           id="path204" /></g><g
         opacity="1"
         id="g212"><path
           d="m 563.728,807.828 c -3.863,6.217 -21.589,87.293 -58.024,91.382 -42.284,4.741 -88.107,-54.658 -103.695,-154.52"
           fill="#000000"
           fill-rule="nonzero"
           opacity="1"
           stroke="none"
           id="path208" /><path
           d="m 500.926,907.172 c -22.194,0 -44.502,-14.566 -63.389,-41.587 -20.592,-29.462 -35.507,-70.856 -43.132,-119.708 -0.655,-4.199 2.217,-8.134 6.416,-8.789 4.196,-0.662 8.134,2.216 8.789,6.416 15.817,101.33 60.881,151.899 95.235,148.06 25.032,-2.809 38.836,-42.532 44.73,-59.495 1.902,-5.474 2.79,-7.969 3.894,-9.744 2.244,-3.609 6.986,-4.719 10.598,-2.473 3.572,2.221 4.694,6.894 2.539,10.488 -0.44,0.875 -1.53,4.01 -2.493,6.78 -6.848,19.704 -22.882,65.847 -57.552,69.736 -1.875,0.211 -3.755,0.316 -5.635,0.316 z"
           fill="#ffffff"
           fill-rule="nonzero"
           opacity="1"
           stroke="none"
           id="path210" /></g><g
         opacity="1"
         id="g218"><path
           d="m 271.431,691.931 c 0,0 74.735,93.751 101.775,83.803 27.04,-9.951 -79.397,-103.072 -79.397,-103.072"
           fill="#000000"
           fill-rule="nonzero"
           opacity="1"
           stroke="none"
           id="path214" /><path
           d="m 368.626,783.141 c -10.293,0 -27.779,-7.386 -61.125,-40.928 -22.063,-22.194 -41.038,-45.934 -41.228,-46.171 -2.271,-2.848 -1.802,-6.997 1.046,-9.269 2.849,-2.27 6.999,-1.802 9.269,1.046 0.185,0.232 18.77,23.479 40.336,45.163 39.108,39.32 51.85,37.352 54.005,36.562 0.034,-0.014 0.064,-0.025 0.092,-0.036 0.099,-1.875 -1.296,-12.981 -38.023,-50.598 -21.155,-21.669 -43.311,-41.092 -43.532,-41.285 -2.742,-2.398 -3.019,-6.565 -0.621,-9.308 2.399,-2.741 6.564,-3.02 9.306,-0.62 0.221,0.193 22.356,19.596 43.703,41.402 40.087,40.949 43.558,55.223 42.103,63.081 -0.849,4.583 -3.857,8.043 -8.474,9.742 -1.883,0.694 -4.115,1.219 -6.857,1.219 z"
           fill="#ffffff"
           fill-rule="nonzero"
           opacity="1"
           stroke="none"
           id="path216" /></g><g
         opacity="1"
         id="g234"><path
           d="m 608.784,566.48 c 0,0 45.571,58.669 56.951,91.298 11.382,32.631 57.408,169.76 155.496,79.185 98.089,-90.574 -92.64,-346.519 -231.746,-234.22"
           fill="#000000"
           fill-rule="nonzero"
           opacity="1"
           stroke="none"
           id="path220" /><path
           d="m 749.942,606.563 c -0.317,0 -0.638,-0.022 -0.955,-0.07 l -80.215,-11.744 c -3.079,-0.451 -5.423,-2.991 -5.626,-6.096 l -5.799,-88.651 c -0.134,-2.04 0.687,-4.028 2.222,-5.38 l 27.312,-24.052 c 2.734,-2.405 6.9,-2.143 9.31,0.591 2.407,2.733 2.143,6.901 -0.591,9.309 l -24.878,21.908 5.24,80.093 72.379,10.597 50.76,-34.843 c 3,-2.063 7.107,-1.3 9.169,1.705 2.063,3.002 1.3,7.108 -1.704,9.169 l -52.891,36.307 c -1.105,0.757 -2.407,1.157 -3.733,1.157 z"
           fill="#ffffff"
           fill-rule="nonzero"
           opacity="1"
           stroke="none"
           id="path222" /><path
           d="m 759.048,775.12 c -5.102,0 -10.128,-0.618 -15.086,-1.858 -50.574,-12.649 -76.509,-87.145 -85.03,-111.624 l -0.461,-1.325 c -10.841,-31.079 -55.315,-88.535 -55.764,-89.111 -2.606,-3.355 -2,-8.189 1.357,-10.797 3.355,-2.606 8.19,-1.999 10.797,1.356 1.893,2.436 46.479,60.05 58.14,93.483 l 0.465,1.334 c 7.846,22.537 31.722,91.122 74.231,101.754 20.392,5.104 43.373,-3.992 68.313,-27.022 26.514,-24.481 26.794,-59.027 22.36,-83.695 -5.92,-32.94 -24.165,-69.025 -50.054,-99.001 -46.125,-53.408 -124.609,-95.899 -193.998,-39.884 -3.308,2.671 -8.152,2.152 -10.821,-1.152 -2.669,-3.308 -2.153,-8.151 1.153,-10.821 33.982,-27.433 73.885,-36.075 115.396,-24.993 35.395,9.448 70.878,33.168 99.918,66.79 53.229,61.631 80.6,154.096 26.486,204.063 -23.41,21.617 -46.015,32.503 -67.402,32.503 z"
           fill="#ffffff"
           fill-rule="nonzero"
           opacity="1"
           stroke="none"
           id="path224" /><path
           d="M 842.174,696.57 C 737.708,793.031 688.693,646.991 676.567,612.242 664.45,577.491 615.917,515.009 615.917,515.009 l -8.15,-26.927 c -10.346,4.668 -20.55,10.919 -30.508,18.957 l 20.55,67.879 c 0,0 48.536,62.483 60.654,97.232 12.12,34.75 61.141,180.789 165.604,84.33 20.215,-18.666 28.902,-43.926 28.712,-71.661 -3.106,4.15 -6.629,8.08 -10.605,11.751 z"
           fill="#000000"
           fill-rule="nonzero"
           opacity="1"
           stroke="none"
           id="path226" /><path
           d="m 757.847,796.613 c -64.206,0 -95.784,-90.715 -106.162,-120.524 l -0.488,-1.404 c -11.562,-33.154 -58.987,-94.431 -59.466,-95.046 -0.577,-0.744 -1.014,-1.589 -1.287,-2.49 l -20.549,-67.88 c -0.908,-2.999 0.092,-6.249 2.531,-8.217 10.186,-8.223 21.011,-14.946 32.175,-19.983 2.02,-0.91 4.333,-0.907 6.348,0.009 2.018,0.916 3.54,2.657 4.183,4.775 l 7.74,25.574 c 6.878,8.949 49.339,64.95 60.96,98.282 l 0.504,1.445 c 9.489,27.246 38.363,110.161 91.619,110.161 18.632,0 39.155,-10.228 60.999,-30.397 3.546,-3.274 6.798,-6.877 9.663,-10.708 1.979,-2.646 5.431,-3.735 8.564,-2.7 3.14,1.031 5.27,3.953 5.292,7.257 0.216,31.575 -10.568,58.329 -31.188,77.366 -24.777,22.88 -48.812,34.48 -71.438,34.48 z M 604.763,571.336 c 6.879,8.95 49.342,64.951 60.964,98.28 l 0.493,1.413 c 9.487,27.255 38.358,110.195 91.627,110.195 18.632,0 39.155,-10.228 60.998,-30.397 12.861,-11.876 21.038,-26.923 24.435,-44.902 -23.325,20.431 -45.953,30.78 -67.325,30.78 -64.192,0 -95.773,-90.689 -106.152,-120.49 l -0.501,-1.438 c -11.568,-33.178 -58.983,-94.434 -59.461,-95.049 -0.579,-0.744 -1.015,-1.589 -1.288,-2.49 l -5.519,-18.229 c -5.761,3.115 -11.406,6.744 -16.88,10.854 z"
           fill="#ffffff"
           fill-rule="nonzero"
           opacity="1"
           stroke="none"
           id="path228" /><path
           d="m 809.896,721.438 c -0.765,0 -1.543,-0.134 -2.302,-0.416 l -47.861,-17.828 c -2.652,-0.989 -4.38,-3.562 -4.289,-6.391 l 2.598,-81.872 c 0.065,-2.05 1.08,-3.953 2.746,-5.148 l 47.272,-33.934 c 2.959,-2.126 7.08,-1.449 9.204,1.511 2.124,2.96 1.447,7.08 -1.512,9.204 l -44.63,32.037 -2.344,73.885 43.422,16.174 c 3.412,1.271 5.149,5.07 3.878,8.483 -0.989,2.655 -3.506,4.295 -6.182,4.295 z"
           fill="#ffffff"
           fill-rule="nonzero"
           opacity="1"
           stroke="none"
           id="path230" /><path
           d="m 738.582,716.724 c -0.171,0 -0.342,-0.006 -0.515,-0.019 -3.631,-0.28 -6.35,-3.451 -6.069,-7.083 l 6.469,-83.929 -63.283,-9.648 c -3.602,-0.55 -6.075,-3.914 -5.526,-7.515 0.55,-3.602 3.915,-6.074 7.514,-5.526 l 69.337,10.571 c 3.412,0.521 5.847,3.586 5.582,7.027 l -6.939,90.032 c -0.269,3.461 -3.159,6.09 -6.57,6.09 z"
           fill="#ffffff"
           fill-rule="nonzero"
           opacity="1"
           stroke="none"
           id="path232" /></g><g
         opacity="1"
         id="g240"><path
           d="m 431.41,196.5 c -257.203,28.649 -239.55,287.761 -225.44,361.714 17.208,90.223 156.512,118.288 264.348,104.892 70.15,-8.714 269.45,-11.567 257.177,-221.272 C 715.218,232.126 577.732,180.204 431.41,196.5 Z"
           fill="#000000"
           fill-rule="nonzero"
           opacity="1"
           stroke="none"
           id="path236" /><path
           d="m 418.303,673.964 c -52.435,0 -102.127,-9.276 -139.923,-26.122 -45.15,-20.123 -72.803,-50.617 -79.969,-88.186 -2.574,-13.488 -10.56,-62.033 -5.275,-120.367 5.565,-61.431 23.526,-113.098 53.385,-153.565 40.738,-55.214 102.658,-87.807 184.037,-96.871 16.86,-1.877 33.422,-2.83 49.224,-2.83 71.504,0 129.519,18.859 172.431,56.053 49.836,43.196 77.749,110.252 82.963,199.308 5.063,86.491 -24.699,149.119 -88.458,186.146 -52.37,30.413 -115.436,36.914 -157.169,41.216 -6.652,0.686 -12.936,1.333 -18.283,1.997 -17.213,2.137 -35.033,3.221 -52.963,3.221 z m 61.479,-472.552 c -15.235,0 -31.224,0.92 -47.521,2.736 -76.943,8.57 -135.269,39.09 -173.356,90.712 -73.632,99.795 -48.487,245.613 -45.377,261.912 14.332,75.141 119.268,101.802 204.775,101.802 17.299,0 34.479,-1.044 51.066,-3.104 5.507,-0.686 11.867,-1.34 18.602,-2.035 40.423,-4.167 101.509,-10.463 151.02,-39.215 59.146,-34.348 85.584,-90.59 80.822,-171.938 C 708.158,243.201 582.85,201.412 479.782,201.412 Z"
           fill="#ffffff"
           fill-rule="nonzero"
           opacity="1"
           stroke="none"
           id="path238" /></g><g
         opacity="1"
         id="g262"><g
           opacity="1"
           id="g250"><path
             d="m 338.677,110.275 c 0,-8.694 12.601,-15.7409 28.145,-15.7409 15.545,0 28.146,7.0469 28.146,15.7409 0,8.693 -12.601,15.741 -28.146,15.741 -15.544,0 -28.145,-7.048 -28.145,-15.741 z"
             fill="#000000"
             fill-rule="nonzero"
             opacity="1"
             stroke="#ffa8a8"
             stroke-linecap="butt"
             stroke-linejoin="round"
             stroke-opacity="0.00869649"
             stroke-width="0.550666"
             id="path242" /><path
             d="m 410.385,100.929 c 0,-10.4457 12.873,-18.9135 28.753,-18.9135 15.881,0 28.754,8.4678 28.754,18.9135 0,10.445 -12.873,18.913 -28.754,18.913 -15.88,0 -28.753,-8.468 -28.753,-18.913 z"
             fill="#000000"
             fill-rule="nonzero"
             opacity="1"
             stroke="#ffa8a8"
             stroke-linecap="butt"
             stroke-linejoin="round"
             stroke-opacity="0.00869649"
             stroke-width="0.550666"
             id="path244" /><path
             d="m 378.068,134.907 c -0.002,0 -0.004,0 -0.006,0 -25.794,-0.001 -41.075,-4.939 -46.715,-15.096 -2.609,-4.699 -4.252,-12.658 2.739,-23.886 7.498,-12.041 16.837,-14.568 23.352,-14.568 24.532,0 49.041,36.092 51.755,40.208 1.466,2.222 1.679,5.042 0.563,7.459 -1.114,2.417 -3.398,4.085 -6.039,4.413 -0.485,0.059 -12.014,1.47 -25.649,1.47 z m -20.63,-38.161 c -2.461,0 -6.206,0.758 -10.288,7.313 -1.104,1.773 -3.543,6.129 -2.349,8.28 0.408,0.735 4.807,7.177 33.261,7.178 10e-4,0 0.004,0 0.006,0 3.616,0 7.09,-0.109 10.213,-0.265 -9.241,-11.123 -21.653,-22.506 -30.843,-22.506 z"
             fill="#ffffff"
             fill-rule="nonzero"
             opacity="1"
             stroke="none"
             id="path246" /><path
             d="m 402.768,133.495 c -2.376,0 -4.637,-1.102 -6.102,-3.009 -1.621,-2.11 -2.035,-4.909 -1.098,-7.399 1.978,-5.246 20.097,-51.256 47.053,-51.256 7.289,0 14.201,3.254 20.542,9.671 9.788,9.905 9.533,18.392 7.595,23.768 -3.627,10.06 -16.109,17.609 -38.159,23.078 -14.757,3.661 -28.49,5.052 -29.067,5.11 -0.256,0.024 -0.511,0.037 -0.764,0.037 z M 442.621,87.22 c -9.631,0 -20.28,15.583 -27.166,29.072 19.802,-3.443 38.519,-9.838 40.826,-16.245 0.861,-2.392 -2.556,-6.202 -4.064,-7.729 -3.344,-3.383 -6.572,-5.098 -9.596,-5.098 z"
             fill="#ffffff"
             fill-rule="nonzero"
             opacity="1"
             stroke="none"
             id="path248" /></g><path
           d="m 324.532,228.055 c 0,0 -67.068,25.76 -89.181,69.824 -22.107,44.061 57.964,76.706 140.405,60.735 82.437,-15.971 101.376,-79.106 101.376,-79.106 z"
           fill="#000000"
           fill-rule="nonzero"
           opacity="1"
           stroke="none"
           id="path252" /><path
           d="m 332.97,370.426 c -0.002,0 -0.004,0 -0.006,0 -48.345,-10e-4 -88.906,-15.11 -103.333,-38.492 -7.207,-11.68 -7.606,-24.649 -1.155,-37.506 23.182,-46.196 90.446,-72.461 93.299,-73.556 1.674,-0.644 3.519,-0.681 5.217,-0.108 l 152.601,51.453 c 3.932,1.326 6.104,5.529 4.912,9.502 -0.212,0.708 -5.378,17.535 -21.27,36.323 -14.521,17.167 -41.229,39.451 -86.013,48.127 -14.586,2.824 -29.475,4.257 -44.252,4.257 z m -8.179,-134.163 c -12.072,5.093 -64.391,28.856 -82.562,65.067 -4.044,8.059 -3.881,15.426 0.498,22.522 11.329,18.36 48.436,31.184 90.237,31.185 10e-4,0 0.004,0 0.006,0 13.798,0 27.701,-1.337 41.324,-3.977 32.132,-6.225 57.941,-20.489 76.71,-42.395 8.188,-9.555 13.187,-18.574 15.943,-24.472 z"
           fill="#ffffff"
           fill-rule="nonzero"
           opacity="1"
           stroke="none"
           id="path254" /><path
           d="m 412.057,122.163 c -51.872,10.231 -107.728,32.505 -118.255,117.193 -12.32,99.118 169.018,53.089 218.665,30.676 117.896,-53.227 -9.176,-165.863 -100.41,-147.869 z"
           fill="#000000"
           fill-rule="nonzero"
           opacity="1"
           stroke="none"
           id="path256" /><path
           d="m 370.907,308.14 c -0.003,0 -0.005,0 -0.009,0 -34.516,-10e-4 -59,-7.908 -72.775,-23.501 -10.298,-11.658 -14.321,-27.212 -11.958,-46.232 11.211,-90.185 72.372,-113.531 124.403,-123.793 6.97,-1.375 14.322,-2.072 21.853,-2.072 28.099,0 59.106,9.796 85.074,26.877 26.339,17.326 44.182,39.973 48.953,62.136 3.851,17.887 2.369,51.479 -50.815,75.49 -28.602,12.912 -92.411,31.095 -144.726,31.095 z m 61.514,-180.209 c -6.533,0 -12.884,0.6 -18.875,1.781 -49.861,9.835 -102.172,30.666 -112.108,110.594 -1.822,14.653 0.867,25.823 8.219,34.146 10.574,11.97 31.751,18.298 61.241,18.299 49.483,0.001 111.84,-17.74 138.401,-29.731 22.718,-10.257 48.463,-28.684 42.104,-58.226 -8.35,-38.791 -67.286,-76.863 -118.982,-76.863 z"
           fill="#ffffff"
           fill-rule="nonzero"
           opacity="1"
           stroke="none"
           id="path258" /><path
           d="m 354.491,307.445 c -3.143,0 -6.093,-1.94 -7.23,-5.063 -23.798,-65.343 -9.166,-111.951 7.299,-139.543 17.896,-29.989 41.39,-44.282 42.381,-44.876 1.546,-0.925 3.367,-1.279 5.146,-1 1.207,0.189 29.81,5.04 52.681,40.096 22.153,33.957 26.31,119.078 26.476,122.685 0.196,4.245 -3.086,7.844 -7.331,8.041 -4.229,0.188 -7.845,-3.086 -8.042,-7.332 -0.038,-0.841 -4.122,-84.528 -23.992,-114.985 -15.313,-23.473 -32.928,-30.671 -39.513,-32.636 -6.109,4.31 -22.29,17.014 -34.95,38.5 -21.121,35.847 -23.038,78.167 -5.696,125.784 1.455,3.994 -0.604,8.409 -4.597,9.863 -0.868,0.315 -1.757,0.466 -2.632,0.466 z"
           fill="#ffffff"
           fill-rule="nonzero"
           opacity="1"
           stroke="none"
           id="path260" /></g><g
         opacity="1"
         id="g268"><path
           d="m 454.659,509.006 c 0,-33.297 23.828,-60.29 53.222,-60.29 29.394,0 53.222,26.993 53.222,60.29 0,33.297 -23.828,60.29 -53.222,60.29 -29.394,0 -53.222,-26.993 -53.222,-60.29 z"
           fill="#ffffff"
           fill-rule="nonzero"
           opacity="1"
           stroke="none"
           id="path264" /><path
           d="m 475.353,524.212 c 0,10.678 8.661,19.335 19.339,19.335 10.682,0 19.34,-8.657 19.34,-19.335 0,-10.684 -8.658,-19.34 -19.34,-19.34 -10.678,0 -19.339,8.656 -19.339,19.34 z"
           fill="#000000"
           fill-rule="nonzero"
           opacity="1"
           stroke="none"
           id="path266" /></g><g
         opacity="1"
         id="g274"><path
           d="m 229.931,513.139 c 0,-33.298 23.828,-60.291 53.222,-60.291 29.394,0 53.222,26.993 53.222,60.291 0,33.298 -23.828,60.291 -53.222,60.291 -29.394,0 -53.222,-26.993 -53.222,-60.291 z"
           fill="#ffffff"
           fill-rule="nonzero"
           opacity="1"
           stroke="none"
           id="path270" /><path
           d="m 250.624,528.345 c 0,10.679 8.661,19.336 19.339,19.336 10.681,0 19.339,-8.657 19.339,-19.336 0,-10.683 -8.659,-19.339 -19.339,-19.339 -10.678,0 -19.339,8.656 -19.339,19.339 z"
           fill="#000000"
           fill-rule="nonzero"
           opacity="1"
           stroke="none"
           id="path272" /></g><path
         d="m 386.967,603.704 c -8.886,0 -17.341,-3.245 -23.986,-9.244 -7.108,-6.418 -11.292,-15.221 -11.779,-24.785 -0.216,-4.245 3.049,-7.86 7.293,-8.077 4.238,-0.197 7.86,3.05 8.076,7.293 0.278,5.46 2.666,10.484 6.724,14.146 4.057,3.664 9.296,5.529 14.757,5.249 5.458,-0.277 10.482,-2.665 14.146,-6.723 3.664,-4.058 5.527,-9.298 5.249,-14.756 -0.217,-4.245 3.048,-7.861 7.292,-8.078 4.245,-0.198 7.86,3.049 8.077,7.292 0.488,9.564 -2.777,18.747 -9.195,25.854 -6.419,7.108 -15.221,11.292 -24.785,11.78 -0.625,0.033 -1.249,0.049 -1.869,0.049 z"
         fill="#ffffff"
         fill-rule="nonzero"
         opacity="1"
         stroke="none"
         id="path276" /><g
         opacity="1"
         id="g300"><path
           d="m 246.086,708.456 c -2.827,0 -5.442,-1.832 -6.308,-4.679 l -29.224,-96.065 c -1.06,-3.484 0.905,-7.169 4.39,-8.229 3.485,-1.059 7.169,0.905 8.229,4.391 l 29.224,96.066 c 1.061,3.484 -0.905,7.168 -4.39,8.229 -0.638,0.193 -1.285,0.287 -1.921,0.287 z"
           fill="#0b0b0b"
           fill-rule="nonzero"
           opacity="1"
           stroke="none"
           id="path278" /><path
           d="m 260.917,693.747 c -2.828,0 -5.442,-1.832 -6.308,-4.677 l -15.47,-50.84 c -1.06,-3.486 0.905,-7.17 4.39,-8.23 3.485,-1.058 7.169,0.904 8.229,4.39 l 15.47,50.84 c 1.06,3.485 -0.905,7.17 -4.39,8.23 -0.638,0.194 -1.285,0.287 -1.921,0.287 z"
           fill="#0b0b0b"
           fill-rule="nonzero"
           opacity="1"
           stroke="none"
           id="path280" /><path
           d="m 172.946,590.893 c -2.828,0 -5.442,-1.832 -6.308,-4.678 l -29.225,-96.067 c -1.06,-3.484 0.905,-7.169 4.39,-8.229 3.484,-1.063 7.169,0.906 8.229,4.391 l 29.225,96.067 c 1.06,3.484 -0.906,7.169 -4.391,8.229 -0.637,0.194 -1.284,0.287 -1.92,0.287 z"
           fill="#0b0b0b"
           fill-rule="nonzero"
           opacity="1"
           stroke="none"
           id="path282" /><path
           d="m 142.187,552.279 c -2.827,0 -5.442,-1.833 -6.308,-4.679 l -18.398,-60.479 c -1.06,-3.484 0.906,-7.169 4.391,-8.229 3.483,-1.062 7.169,0.906 8.229,4.391 l 18.398,60.479 c 1.061,3.484 -0.905,7.169 -4.39,8.229 -0.639,0.195 -1.286,0.288 -1.922,0.288 z"
           fill="#0b0b0b"
           fill-rule="nonzero"
           opacity="1"
           stroke="none"
           id="path284" /><path
           d="m 247.471,711.975 c -36.011,0 -81.154,-28.145 -115.008,-71.701 -22.403,-28.821 -37.319,-60.825 -42,-90.116 -4.905,-30.697 1.946,-55.029 19.292,-68.513 9.016,-7.007 20.156,-10.56 33.112,-10.56 36.011,0 81.156,28.144 115.012,71.7 22.403,28.822 37.318,60.827 41.998,90.117 4.905,30.697 -1.947,55.027 -19.292,68.511 -9.016,7.008 -20.157,10.562 -33.114,10.562 z M 142.867,484.276 c -9.955,0 -18.371,2.618 -25.017,7.783 -13.371,10.395 -18.472,30.288 -14.361,56.017 4.336,27.136 18.324,57.004 39.389,84.102 31.448,40.462 72.503,66.606 104.593,66.606 9.955,0 18.372,-2.62 25.018,-7.786 13.372,-10.394 18.473,-30.287 14.362,-56.014 -4.336,-27.136 -18.324,-57.004 -39.388,-84.104 -31.449,-40.46 -72.505,-66.604 -104.596,-66.604 z"
           fill="#ffffff"
           fill-rule="nonzero"
           opacity="1"
           stroke="none"
           id="path286" /><g
           opacity="1"
           id="g292"><path
             d="m 152.961,618.047 c -37.177,-47.827 -50.877,-101.83 -36.539,-133.045 -0.89,0.585 -1.771,1.189 -2.619,1.85 -31.756,24.687 -21.071,91.563 23.868,149.374 44.934,57.813 107.109,84.667 138.867,59.979 5.485,-4.264 9.676,-9.812 12.671,-16.329 -32.461,21.358 -92.512,-5.564 -136.248,-61.829 z"
             fill="#000000"
             fill-rule="nonzero"
             opacity="1"
             stroke="none"
             id="path288" /><path
             d="m 247.471,711.975 c -36.011,0 -81.154,-28.145 -115.008,-71.701 -22.403,-28.821 -37.319,-60.825 -42,-90.116 -4.905,-30.697 1.946,-55.029 19.292,-68.513 1.114,-0.868 2.212,-1.607 3.044,-2.154 2.458,-1.615 5.69,-1.409 7.921,0.509 2.231,1.918 2.923,5.082 1.695,7.756 -13.642,29.699 1.061,81.612 35.753,126.243 31.443,40.451 72.492,66.588 104.577,66.588 8.881,0 16.565,-2.092 22.838,-6.221 2.459,-1.616 5.691,-1.41 7.923,0.508 2.232,1.918 2.924,5.083 1.695,7.758 -3.521,7.661 -8.439,13.98 -14.617,18.782 -9.015,7.007 -20.156,10.561 -33.113,10.561 z M 104.18,514.064 c -2.495,9.539 -2.765,21.033 -0.691,34.012 4.336,27.136 18.324,57.004 39.389,84.102 31.448,40.462 72.503,66.606 104.593,66.606 8.189,0 15.337,-1.772 21.315,-5.277 -1.968,0.181 -3.983,0.271 -6.042,0.271 -36.005,0 -81.142,-28.137 -114.991,-71.683 -27.965,-35.979 -43.495,-75.757 -43.573,-108.031 z"
             fill="#ffffff"
             fill-rule="nonzero"
             opacity="1"
             stroke="none"
             id="path290" /></g><g
           opacity="1"
           id="g298"><path
             d="m 233.17,547.284 c -40.961,-44.623 -91.927,-67.132 -125.096,-58.193 0.729,-0.781 1.467,-1.552 2.261,-2.274 29.632,-27.199 93.793,-5.52 143.309,48.421 49.519,53.941 65.632,119.723 36,146.922 -5.117,4.699 -11.282,7.903 -18.213,9.771 26.469,-28.447 9.93,-92.142 -38.261,-144.647 z"
             fill="#000000"
             fill-rule="nonzero"
             opacity="1"
             stroke="none"
             id="path294" /><path
             d="m 271.43,698.527 c -2.27,0 -4.434,-1.178 -5.648,-3.192 -1.52,-2.521 -1.185,-5.742 0.82,-7.896 23.943,-25.731 6.766,-86.604 -38.291,-135.694 -32.338,-35.229 -73.452,-57.991 -104.743,-57.991 -4.942,0 -9.577,0.574 -13.778,1.706 -2.843,0.764 -5.85,-0.445 -7.368,-2.969 -1.518,-2.523 -1.179,-5.747 0.83,-7.899 0.793,-0.85 1.662,-1.759 2.643,-2.652 9.583,-8.796 22.77,-13.455 38.116,-13.455 35.349,0 79.219,23.869 114.491,62.294 24.687,26.892 42.17,57.568 49.229,86.379 7.397,30.195 2.558,55.006 -13.628,69.861 -5.757,5.288 -12.808,9.084 -20.956,11.281 -0.569,0.152 -1.146,0.227 -1.717,0.227 z M 138.665,481.904 c 32.21,5.529 68.983,27.822 99.365,60.919 23.971,26.117 41.248,55.994 48.647,84.129 4.664,17.729 5.151,33.766 1.611,47.1 9.912,-11.833 12.283,-30.692 6.633,-53.755 -6.54,-26.692 -22.924,-55.315 -46.135,-80.6 -32.355,-35.247 -73.481,-58.022 -104.773,-58.022 -1.837,0 -3.619,0.076 -5.348,0.229 z"
             fill="#ffffff"
             fill-rule="nonzero"
             opacity="1"
             stroke="#ffa8a8"
             stroke-linecap="butt"
             stroke-linejoin="round"
             stroke-opacity="0.00869649"
             stroke-width="0.550666"
             id="path296" /></g></g><g
         opacity="1"
         id="g306"><path
           d="m 569.414,650.646 c 0,0 -79.082,57.557 -64.75,93.745 14.328,36.197 105.145,47.902 156.34,-2.07"
           fill="#000000"
           fill-rule="nonzero"
           opacity="1"
           stroke="none"
           id="path302" /><path
           d="m 574.221,783.433 c -9.963,10e-4 -19.291,-1.026 -27.467,-2.772 -24.996,-5.335 -42.944,-17.522 -49.244,-33.437 -7.145,-18.04 2.471,-41.113 28.578,-68.577 18.252,-19.2 37.968,-33.618 38.799,-34.223 3.436,-2.499 8.247,-1.741 10.747,1.693 2.502,3.435 1.745,8.247 -1.69,10.748 -28.705,20.914 -70.954,62.4 -62.125,84.693 4.308,10.881 18.568,19.873 38.148,24.052 31.104,6.64 75.844,0.312 105.662,-28.795 3.042,-2.971 7.913,-2.91 10.881,0.131 2.969,3.041 2.91,7.913 -0.131,10.881 -27.119,26.472 -62.453,35.606 -92.158,35.606 z"
           fill="#ffffff"
           fill-rule="nonzero"
           opacity="1"
           stroke="none"
           id="path304" /></g><g
         opacity="1"
         id="g312"><path
           d="m 285.469,782.626 c -18.616,-25.119 -16.237,-58.43 5.313,-74.401 21.551,-15.971 54.112,-8.554 72.728,16.565 18.616,25.12 16.237,58.43 -5.313,74.401 -21.55,15.971 -54.112,8.555 -72.728,-16.565 z"
           fill="#000000"
           fill-rule="nonzero"
           opacity="1"
           stroke="none"
           id="path308" /><path
           d="m 332.077,815.297 c -19.996,0 -39.72,-10.504 -52.761,-28.098 -10.098,-13.624 -15.034,-29.875 -13.9,-45.76 1.166,-16.327 8.557,-30.322 20.813,-39.405 8.769,-6.499 19.397,-9.936 30.733,-9.936 19.997,0 39.72,10.504 52.759,28.097 10.099,13.624 15.036,29.874 13.902,45.76 -1.165,16.328 -8.556,30.322 -20.812,39.406 -8.77,6.5 -19.398,9.936 -30.734,9.936 z M 316.962,707.488 c -8.012,0 -15.471,2.389 -21.57,6.909 -8.591,6.368 -13.786,16.36 -14.626,28.139 -0.873,12.22 3.003,24.827 10.913,35.5 10.152,13.695 25.253,21.872 40.397,21.872 8.012,0 15.471,-2.39 21.571,-6.911 8.59,-6.367 13.784,-16.358 14.625,-28.137 0.872,-12.221 -3.004,-24.829 -10.916,-35.5 -10.148,-13.697 -25.25,-21.872 -40.394,-21.872 z"
           fill="#ffffff"
           fill-rule="nonzero"
           opacity="1"
           stroke="none"
           id="path310" /></g></g></g></g></svg>
