%TF.GenerationSoftware,KiCad,Pcbnew,5.1.7-a382d34a8~88~ubuntu18.04.1*%
%TF.CreationDate,2022-12-18T16:02:27-05:00*%
%TF.ProjectId,project-nrf-leak-detector,70726f6a-6563-4742-9d6e-72662d6c6561,rev?*%
%TF.SameCoordinates,Original*%
%TF.FileFunction,Soldermask,Top*%
%TF.FilePolarity,Negative*%
%FSLAX46Y46*%
G04 Gerber Fmt 4.6, Leading zero omitted, Abs format (unit mm)*
G04 Created by KiCad (PCBNEW 5.1.7-a382d34a8~88~ubuntu18.04.1) date 2022-12-18 16:02:27*
%MOMM*%
%LPD*%
G01*
G04 APERTURE LIST*
%ADD10R,1.300000X1.800000*%
%ADD11R,1.100000X0.350000*%
%ADD12R,0.350000X1.100000*%
%ADD13R,0.600000X0.650000*%
%ADD14R,0.700000X0.350000*%
%ADD15R,0.700000X0.450000*%
%ADD16R,5.100000X1.400000*%
%ADD17C,1.700000*%
%ADD18R,0.740000X2.400000*%
%ADD19C,5.000000*%
G04 APERTURE END LIST*
%TO.C,LS1*%
G36*
G01*
X51750000Y-64375000D02*
X51750000Y-60625000D01*
G75*
G02*
X52375000Y-60000000I625000J0D01*
G01*
X53625000Y-60000000D01*
G75*
G02*
X54250000Y-60625000I0J-625000D01*
G01*
X54250000Y-64375000D01*
G75*
G02*
X53625000Y-65000000I-625000J0D01*
G01*
X52375000Y-65000000D01*
G75*
G02*
X51750000Y-64375000I0J625000D01*
G01*
G37*
G36*
G01*
X46750000Y-64375000D02*
X46750000Y-60625000D01*
G75*
G02*
X47375000Y-60000000I625000J0D01*
G01*
X48625000Y-60000000D01*
G75*
G02*
X49250000Y-60625000I0J-625000D01*
G01*
X49250000Y-64375000D01*
G75*
G02*
X48625000Y-65000000I-625000J0D01*
G01*
X47375000Y-65000000D01*
G75*
G02*
X46750000Y-64375000I0J625000D01*
G01*
G37*
%TD*%
%TO.C,R3*%
G36*
G01*
X41625000Y-44725000D02*
X42175000Y-44725000D01*
G75*
G02*
X42375000Y-44925000I0J-200000D01*
G01*
X42375000Y-45325000D01*
G75*
G02*
X42175000Y-45525000I-200000J0D01*
G01*
X41625000Y-45525000D01*
G75*
G02*
X41425000Y-45325000I0J200000D01*
G01*
X41425000Y-44925000D01*
G75*
G02*
X41625000Y-44725000I200000J0D01*
G01*
G37*
G36*
G01*
X41625000Y-43075000D02*
X42175000Y-43075000D01*
G75*
G02*
X42375000Y-43275000I0J-200000D01*
G01*
X42375000Y-43675000D01*
G75*
G02*
X42175000Y-43875000I-200000J0D01*
G01*
X41625000Y-43875000D01*
G75*
G02*
X41425000Y-43675000I0J200000D01*
G01*
X41425000Y-43275000D01*
G75*
G02*
X41625000Y-43075000I200000J0D01*
G01*
G37*
%TD*%
%TO.C,C3*%
G36*
G01*
X43750000Y-43975000D02*
X43250000Y-43975000D01*
G75*
G02*
X43025000Y-43750000I0J225000D01*
G01*
X43025000Y-43300000D01*
G75*
G02*
X43250000Y-43075000I225000J0D01*
G01*
X43750000Y-43075000D01*
G75*
G02*
X43975000Y-43300000I0J-225000D01*
G01*
X43975000Y-43750000D01*
G75*
G02*
X43750000Y-43975000I-225000J0D01*
G01*
G37*
G36*
G01*
X43750000Y-45525000D02*
X43250000Y-45525000D01*
G75*
G02*
X43025000Y-45300000I0J225000D01*
G01*
X43025000Y-44850000D01*
G75*
G02*
X43250000Y-44625000I225000J0D01*
G01*
X43750000Y-44625000D01*
G75*
G02*
X43975000Y-44850000I0J-225000D01*
G01*
X43975000Y-45300000D01*
G75*
G02*
X43750000Y-45525000I-225000J0D01*
G01*
G37*
%TD*%
D10*
%TO.C,U1*%
X50200000Y-42550000D03*
X53000000Y-42550000D03*
X53000000Y-39700000D03*
X50200000Y-39700000D03*
D11*
X55650000Y-39450000D03*
X55650000Y-38800000D03*
X55650000Y-38150000D03*
X55650000Y-37500000D03*
D12*
X53700000Y-36300000D03*
X54350000Y-36300000D03*
X55000000Y-36300000D03*
X55650000Y-36300000D03*
X56250000Y-36300000D03*
D11*
X57350000Y-36200000D03*
X57350000Y-36850000D03*
X57350000Y-37500000D03*
X57350000Y-38150000D03*
X57350000Y-38800000D03*
X57350000Y-39450000D03*
X57350000Y-40100000D03*
X57350000Y-40750000D03*
X57350000Y-41400000D03*
X57350000Y-42050000D03*
X57350000Y-42700000D03*
X57350000Y-43350000D03*
X57350000Y-44000000D03*
X57350000Y-44650000D03*
X57350000Y-45300000D03*
X57350000Y-45950000D03*
X57350000Y-46600000D03*
D12*
X56950000Y-47800000D03*
X56300000Y-47800000D03*
X55650000Y-47800000D03*
X55000000Y-47800000D03*
X54350000Y-47800000D03*
X53700000Y-47800000D03*
X53050000Y-47800000D03*
X52400000Y-47800000D03*
X51750000Y-47800000D03*
X51100000Y-47800000D03*
X50450000Y-47800000D03*
X49800000Y-47800000D03*
X49150000Y-47800000D03*
X48500000Y-47800000D03*
X47850000Y-47800000D03*
X47200000Y-47800000D03*
X46550000Y-47800000D03*
D11*
X46150000Y-46600000D03*
X46150000Y-45950000D03*
X46150000Y-45300000D03*
X46150000Y-44650000D03*
X46150000Y-44000000D03*
X46150000Y-43350000D03*
X46150000Y-42700000D03*
X46150000Y-42050000D03*
X46150000Y-41400000D03*
X46150000Y-40750000D03*
X46150000Y-40100000D03*
X46150000Y-39450000D03*
X46150000Y-38800000D03*
X46150000Y-38150000D03*
X46150000Y-37500000D03*
X46150000Y-36850000D03*
X46150000Y-36200000D03*
%TD*%
D13*
%TO.C,S1*%
X42050000Y-38125000D03*
X42050000Y-41275000D03*
X40350000Y-38125000D03*
X40350000Y-41275000D03*
D14*
X41200000Y-37975000D03*
X41200000Y-41425000D03*
%TD*%
%TO.C,R2*%
G36*
G01*
X47325000Y-52475000D02*
X47325000Y-51925000D01*
G75*
G02*
X47525000Y-51725000I200000J0D01*
G01*
X47925000Y-51725000D01*
G75*
G02*
X48125000Y-51925000I0J-200000D01*
G01*
X48125000Y-52475000D01*
G75*
G02*
X47925000Y-52675000I-200000J0D01*
G01*
X47525000Y-52675000D01*
G75*
G02*
X47325000Y-52475000I0J200000D01*
G01*
G37*
G36*
G01*
X45675000Y-52475000D02*
X45675000Y-51925000D01*
G75*
G02*
X45875000Y-51725000I200000J0D01*
G01*
X46275000Y-51725000D01*
G75*
G02*
X46475000Y-51925000I0J-200000D01*
G01*
X46475000Y-52475000D01*
G75*
G02*
X46275000Y-52675000I-200000J0D01*
G01*
X45875000Y-52675000D01*
G75*
G02*
X45675000Y-52475000I0J200000D01*
G01*
G37*
%TD*%
%TO.C,R1*%
G36*
G01*
X36975000Y-39575000D02*
X36425000Y-39575000D01*
G75*
G02*
X36225000Y-39375000I0J200000D01*
G01*
X36225000Y-38975000D01*
G75*
G02*
X36425000Y-38775000I200000J0D01*
G01*
X36975000Y-38775000D01*
G75*
G02*
X37175000Y-38975000I0J-200000D01*
G01*
X37175000Y-39375000D01*
G75*
G02*
X36975000Y-39575000I-200000J0D01*
G01*
G37*
G36*
G01*
X36975000Y-41225000D02*
X36425000Y-41225000D01*
G75*
G02*
X36225000Y-41025000I0J200000D01*
G01*
X36225000Y-40625000D01*
G75*
G02*
X36425000Y-40425000I200000J0D01*
G01*
X36975000Y-40425000D01*
G75*
G02*
X37175000Y-40625000I0J-200000D01*
G01*
X37175000Y-41025000D01*
G75*
G02*
X36975000Y-41225000I-200000J0D01*
G01*
G37*
%TD*%
D15*
%TO.C,Q1*%
X48000000Y-54600000D03*
X46000000Y-55250000D03*
X46000000Y-53950000D03*
%TD*%
%TO.C,L1*%
G36*
G01*
X59450000Y-62875000D02*
X59450000Y-61425000D01*
G75*
G02*
X60175000Y-60700000I725000J0D01*
G01*
X66225000Y-60700000D01*
G75*
G02*
X66950000Y-61425000I0J-725000D01*
G01*
X66950000Y-62875000D01*
G75*
G02*
X66225000Y-63600000I-725000J0D01*
G01*
X60175000Y-63600000D01*
G75*
G02*
X59450000Y-62875000I0J725000D01*
G01*
G37*
G36*
G01*
X66950000Y-66525000D02*
X66950000Y-67975000D01*
G75*
G02*
X66225000Y-68700000I-725000J0D01*
G01*
X60175000Y-68700000D01*
G75*
G02*
X59450000Y-67975000I0J725000D01*
G01*
X59450000Y-66525000D01*
G75*
G02*
X60175000Y-65800000I725000J0D01*
G01*
X66225000Y-65800000D01*
G75*
G02*
X66950000Y-66525000I0J-725000D01*
G01*
G37*
%TD*%
D16*
%TO.C,J2*%
X63250000Y-48950000D03*
X63250000Y-52450000D03*
D17*
X68200000Y-46200000D03*
X68200000Y-55200000D03*
%TD*%
D18*
%TO.C,J1*%
X64760000Y-40850000D03*
X64760000Y-36950000D03*
X66030000Y-40850000D03*
X66030000Y-36950000D03*
X67300000Y-40850000D03*
X67300000Y-36950000D03*
X68570000Y-40850000D03*
X68570000Y-36950000D03*
X69840000Y-40850000D03*
X69840000Y-36950000D03*
%TD*%
D19*
%TO.C,H2*%
X77200000Y-50700000D03*
%TD*%
%TO.C,H1*%
X39200000Y-50700000D03*
%TD*%
%TO.C,D1*%
G36*
G01*
X50250000Y-55600000D02*
X50750000Y-55600000D01*
G75*
G02*
X50950000Y-55800000I0J-200000D01*
G01*
X50950000Y-56200000D01*
G75*
G02*
X50750000Y-56400000I-200000J0D01*
G01*
X50250000Y-56400000D01*
G75*
G02*
X50050000Y-56200000I0J200000D01*
G01*
X50050000Y-55800000D01*
G75*
G02*
X50250000Y-55600000I200000J0D01*
G01*
G37*
G36*
G01*
X50250000Y-57900000D02*
X50750000Y-57900000D01*
G75*
G02*
X50950000Y-58100000I0J-200000D01*
G01*
X50950000Y-58500000D01*
G75*
G02*
X50750000Y-58700000I-200000J0D01*
G01*
X50250000Y-58700000D01*
G75*
G02*
X50050000Y-58500000I0J200000D01*
G01*
X50050000Y-58100000D01*
G75*
G02*
X50250000Y-57900000I200000J0D01*
G01*
G37*
%TD*%
%TO.C,C2*%
G36*
G01*
X56450000Y-51175000D02*
X56450000Y-50225000D01*
G75*
G02*
X56700000Y-49975000I250000J0D01*
G01*
X57200000Y-49975000D01*
G75*
G02*
X57450000Y-50225000I0J-250000D01*
G01*
X57450000Y-51175000D01*
G75*
G02*
X57200000Y-51425000I-250000J0D01*
G01*
X56700000Y-51425000D01*
G75*
G02*
X56450000Y-51175000I0J250000D01*
G01*
G37*
G36*
G01*
X54550000Y-51175000D02*
X54550000Y-50225000D01*
G75*
G02*
X54800000Y-49975000I250000J0D01*
G01*
X55300000Y-49975000D01*
G75*
G02*
X55550000Y-50225000I0J-250000D01*
G01*
X55550000Y-51175000D01*
G75*
G02*
X55300000Y-51425000I-250000J0D01*
G01*
X54800000Y-51425000D01*
G75*
G02*
X54550000Y-51175000I0J250000D01*
G01*
G37*
%TD*%
%TO.C,C1*%
G36*
G01*
X38050000Y-40325000D02*
X38550000Y-40325000D01*
G75*
G02*
X38775000Y-40550000I0J-225000D01*
G01*
X38775000Y-41000000D01*
G75*
G02*
X38550000Y-41225000I-225000J0D01*
G01*
X38050000Y-41225000D01*
G75*
G02*
X37825000Y-41000000I0J225000D01*
G01*
X37825000Y-40550000D01*
G75*
G02*
X38050000Y-40325000I225000J0D01*
G01*
G37*
G36*
G01*
X38050000Y-38775000D02*
X38550000Y-38775000D01*
G75*
G02*
X38775000Y-39000000I0J-225000D01*
G01*
X38775000Y-39450000D01*
G75*
G02*
X38550000Y-39675000I-225000J0D01*
G01*
X38050000Y-39675000D01*
G75*
G02*
X37825000Y-39450000I0J225000D01*
G01*
X37825000Y-39000000D01*
G75*
G02*
X38050000Y-38775000I225000J0D01*
G01*
G37*
%TD*%
M02*
