%TF.GenerationSoftware,KiCad,Pcbnew,5.1.7-a382d34a8~88~ubuntu18.04.1*%
%TF.CreationDate,2022-12-15T19:41:17-05:00*%
%TF.ProjectId,project-nrf-leak-detector,70726f6a-6563-4742-9d6e-72662d6c6561,rev?*%
%TF.SameCoordinates,Original*%
%TF.FileFunction,Legend,Top*%
%TF.FilePolarity,Positive*%
%FSLAX46Y46*%
G04 Gerber Fmt 4.6, Leading zero omitted, Abs format (unit mm)*
G04 Created by KiCad (PCBNEW 5.1.7-a382d34a8~88~ubuntu18.04.1) date 2022-12-15 19:41:17*
%MOMM*%
%LPD*%
G01*
G04 APERTURE LIST*
%ADD10C,0.150000*%
%ADD11C,0.120000*%
%ADD12C,0.200000*%
%ADD13C,0.127000*%
%ADD14C,0.100000*%
G04 APERTURE END LIST*
D10*
X73252380Y-52604761D02*
X72252380Y-52604761D01*
X72252380Y-52223809D01*
X72300000Y-52128571D01*
X72347619Y-52080952D01*
X72442857Y-52033333D01*
X72585714Y-52033333D01*
X72680952Y-52080952D01*
X72728571Y-52128571D01*
X72776190Y-52223809D01*
X72776190Y-52604761D01*
X73252380Y-51604761D02*
X72585714Y-51604761D01*
X72776190Y-51604761D02*
X72680952Y-51557142D01*
X72633333Y-51509523D01*
X72585714Y-51414285D01*
X72585714Y-51319047D01*
X73252380Y-50842857D02*
X73204761Y-50938095D01*
X73157142Y-50985714D01*
X73061904Y-51033333D01*
X72776190Y-51033333D01*
X72680952Y-50985714D01*
X72633333Y-50938095D01*
X72585714Y-50842857D01*
X72585714Y-50700000D01*
X72633333Y-50604761D01*
X72680952Y-50557142D01*
X72776190Y-50509523D01*
X73061904Y-50509523D01*
X73157142Y-50557142D01*
X73204761Y-50604761D01*
X73252380Y-50700000D01*
X73252380Y-50842857D01*
X73252380Y-50080952D02*
X72252380Y-50080952D01*
X72633333Y-50080952D02*
X72585714Y-49985714D01*
X72585714Y-49795238D01*
X72633333Y-49700000D01*
X72680952Y-49652380D01*
X72776190Y-49604761D01*
X73061904Y-49604761D01*
X73157142Y-49652380D01*
X73204761Y-49700000D01*
X73252380Y-49795238D01*
X73252380Y-49985714D01*
X73204761Y-50080952D01*
X73204761Y-48795238D02*
X73252380Y-48890476D01*
X73252380Y-49080952D01*
X73204761Y-49176190D01*
X73109523Y-49223809D01*
X72728571Y-49223809D01*
X72633333Y-49176190D01*
X72585714Y-49080952D01*
X72585714Y-48890476D01*
X72633333Y-48795238D01*
X72728571Y-48747619D01*
X72823809Y-48747619D01*
X72919047Y-49223809D01*
X71242857Y-36904761D02*
X71385714Y-36952380D01*
X71623809Y-36952380D01*
X71719047Y-36904761D01*
X71766666Y-36857142D01*
X71814285Y-36761904D01*
X71814285Y-36666666D01*
X71766666Y-36571428D01*
X71719047Y-36523809D01*
X71623809Y-36476190D01*
X71433333Y-36428571D01*
X71338095Y-36380952D01*
X71290476Y-36333333D01*
X71242857Y-36238095D01*
X71242857Y-36142857D01*
X71290476Y-36047619D01*
X71338095Y-36000000D01*
X71433333Y-35952380D01*
X71671428Y-35952380D01*
X71814285Y-36000000D01*
X72147619Y-35952380D02*
X72385714Y-36952380D01*
X72576190Y-36238095D01*
X72766666Y-36952380D01*
X73004761Y-35952380D01*
X73385714Y-36952380D02*
X73385714Y-35952380D01*
X73623809Y-35952380D01*
X73766666Y-36000000D01*
X73861904Y-36095238D01*
X73909523Y-36190476D01*
X73957142Y-36380952D01*
X73957142Y-36523809D01*
X73909523Y-36714285D01*
X73861904Y-36809523D01*
X73766666Y-36904761D01*
X73623809Y-36952380D01*
X73385714Y-36952380D01*
X39961904Y-37352380D02*
X39628571Y-36876190D01*
X39390476Y-37352380D02*
X39390476Y-36352380D01*
X39771428Y-36352380D01*
X39866666Y-36400000D01*
X39914285Y-36447619D01*
X39961904Y-36542857D01*
X39961904Y-36685714D01*
X39914285Y-36780952D01*
X39866666Y-36828571D01*
X39771428Y-36876190D01*
X39390476Y-36876190D01*
X40771428Y-37304761D02*
X40676190Y-37352380D01*
X40485714Y-37352380D01*
X40390476Y-37304761D01*
X40342857Y-37209523D01*
X40342857Y-36828571D01*
X40390476Y-36733333D01*
X40485714Y-36685714D01*
X40676190Y-36685714D01*
X40771428Y-36733333D01*
X40819047Y-36828571D01*
X40819047Y-36923809D01*
X40342857Y-37019047D01*
X41200000Y-37304761D02*
X41295238Y-37352380D01*
X41485714Y-37352380D01*
X41580952Y-37304761D01*
X41628571Y-37209523D01*
X41628571Y-37161904D01*
X41580952Y-37066666D01*
X41485714Y-37019047D01*
X41342857Y-37019047D01*
X41247619Y-36971428D01*
X41200000Y-36876190D01*
X41200000Y-36828571D01*
X41247619Y-36733333D01*
X41342857Y-36685714D01*
X41485714Y-36685714D01*
X41580952Y-36733333D01*
X42438095Y-37304761D02*
X42342857Y-37352380D01*
X42152380Y-37352380D01*
X42057142Y-37304761D01*
X42009523Y-37209523D01*
X42009523Y-36828571D01*
X42057142Y-36733333D01*
X42152380Y-36685714D01*
X42342857Y-36685714D01*
X42438095Y-36733333D01*
X42485714Y-36828571D01*
X42485714Y-36923809D01*
X42009523Y-37019047D01*
X42771428Y-36685714D02*
X43152380Y-36685714D01*
X42914285Y-36352380D02*
X42914285Y-37209523D01*
X42961904Y-37304761D01*
X43057142Y-37352380D01*
X43152380Y-37352380D01*
D11*
%TO.C,LS1*%
X54600000Y-66400000D02*
X54600000Y-72400000D01*
X46400000Y-66400000D02*
X46400000Y-72400000D01*
X54600000Y-72400000D02*
X46400000Y-72400000D01*
X46400000Y-66400000D02*
X54600000Y-66400000D01*
%TO.C,R3*%
X42422500Y-44062742D02*
X42422500Y-44537258D01*
X41377500Y-44062742D02*
X41377500Y-44537258D01*
%TO.C,C3*%
X44010000Y-44440580D02*
X44010000Y-44159420D01*
X42990000Y-44440580D02*
X42990000Y-44159420D01*
D12*
%TO.C,U1*%
X45000000Y-36200000D02*
G75*
G03*
X45000000Y-36200000I-100000J0D01*
G01*
D13*
X45500000Y-30050000D02*
X58000000Y-30050000D01*
X45500000Y-48550000D02*
X45500000Y-47100000D01*
X45500000Y-35650000D02*
X45500000Y-30050000D01*
X58000000Y-48550000D02*
X57445000Y-48550000D01*
X46055000Y-48550000D02*
X45500000Y-48550000D01*
X58000000Y-48550000D02*
X58000000Y-47100000D01*
X58000000Y-30050000D02*
X58000000Y-35650000D01*
D14*
%TO.C,S1*%
X42600000Y-38700000D02*
X42600000Y-40700000D01*
X39800000Y-38700000D02*
X39800000Y-40700000D01*
X42150000Y-38684000D02*
G75*
G03*
X42150000Y-38684000I-50000J0D01*
G01*
D11*
%TO.C,R2*%
X46662742Y-51677500D02*
X47137258Y-51677500D01*
X46662742Y-52722500D02*
X47137258Y-52722500D01*
%TO.C,R1*%
X36177500Y-40237258D02*
X36177500Y-39762742D01*
X37222500Y-40237258D02*
X37222500Y-39762742D01*
%TO.C,Q1*%
X47730000Y-55100000D02*
X47730000Y-55760000D01*
X47730000Y-53440000D02*
X47730000Y-54100000D01*
X47730000Y-53440000D02*
X45700000Y-53440000D01*
X46320000Y-55760000D02*
X47730000Y-55760000D01*
%TO.C,J2*%
X71900000Y-50700000D02*
X71900000Y-54300000D01*
X71900000Y-54300000D02*
X64500000Y-54300000D01*
X64500000Y-54300000D02*
X64500000Y-47100000D01*
X64500000Y-47100000D02*
X71900000Y-47100000D01*
X71900000Y-47100000D02*
X71900000Y-50700000D01*
%TO.C,J1*%
X70535000Y-37135000D02*
X70535000Y-40665000D01*
X64065000Y-37135000D02*
X64065000Y-40665000D01*
X70470000Y-35810000D02*
X70470000Y-37135000D01*
X70535000Y-37135000D02*
X70470000Y-37135000D01*
X70535000Y-40665000D02*
X70470000Y-40665000D01*
X64130000Y-37135000D02*
X64065000Y-37135000D01*
X64130000Y-40665000D02*
X64065000Y-40665000D01*
D12*
%TO.C,D1*%
X50600000Y-55050000D02*
G75*
G03*
X50600000Y-55050000I-100000J0D01*
G01*
D13*
X49730000Y-56300000D02*
X49730000Y-58000000D01*
X51270000Y-56300000D02*
X51270000Y-58000000D01*
D11*
%TO.C,C2*%
X55738748Y-49965000D02*
X56261252Y-49965000D01*
X55738748Y-51435000D02*
X56261252Y-51435000D01*
%TO.C,C1*%
X38810000Y-39859420D02*
X38810000Y-40140580D01*
X37790000Y-39859420D02*
X37790000Y-40140580D01*
%TD*%
M02*
