%TF.GenerationSoftware,KiCad,Pcbnew,5.1.7-a382d34a8~88~ubuntu18.04.1*%
%TF.CreationDate,2022-12-18T16:02:27-05:00*%
%TF.ProjectId,project-nrf-leak-detector,70726f6a-6563-4742-9d6e-72662d6c6561,rev?*%
%TF.SameCoordinates,Original*%
%TF.FileFunction,Profile,NP*%
%FSLAX46Y46*%
G04 Gerber Fmt 4.6, Leading zero omitted, Abs format (unit mm)*
G04 Created by KiCad (PCBNEW 5.1.7-a382d34a8~88~ubuntu18.04.1) date 2022-12-18 16:02:27*
%MOMM*%
%LPD*%
G01*
G04 APERTURE LIST*
%TA.AperFunction,Profile*%
%ADD10C,0.050000*%
%TD*%
G04 APERTURE END LIST*
D10*
X48400000Y-65400000D02*
X46400000Y-65400000D01*
X48400000Y-66400000D02*
X48400000Y-65400000D01*
X52600000Y-65400000D02*
X54600000Y-65400000D01*
X52600000Y-66400000D02*
X52600000Y-65400000D01*
X76500000Y-71400000D02*
X54600000Y-71400000D01*
X54600000Y-65400000D02*
X54600000Y-71400000D01*
X48400000Y-66400000D02*
X52600000Y-66400000D01*
X46400000Y-71400000D02*
X46400000Y-65400000D01*
X78200000Y-69700000D02*
G75*
G02*
X80800000Y-64500000I6500000J0D01*
G01*
X81300000Y-63300000D02*
X81300000Y-38100000D01*
X80802082Y-36897918D02*
G75*
G02*
X81300000Y-38100000I-1202082J-1202082D01*
G01*
X81297056Y-63300000D02*
G75*
G02*
X80800000Y-64500000I-1697056J0D01*
G01*
X31700000Y-38200000D02*
G75*
G03*
X36930000Y-35559808I0J6500192D01*
G01*
X37070000Y-35375622D02*
X36930000Y-35559808D01*
X38500000Y-34599808D02*
G75*
G03*
X37070000Y-35375622I0J-1705814D01*
G01*
X79330000Y-35375814D02*
X79470000Y-35560000D01*
X80799885Y-36900154D02*
G75*
G02*
X79470000Y-35560000I3900115J5200154D01*
G01*
X77900000Y-34600000D02*
G75*
G02*
X79330000Y-35375814I0J-1705814D01*
G01*
X38500000Y-34599808D02*
X77900000Y-34600000D01*
X31700000Y-63200000D02*
G75*
G02*
X38200000Y-69700000I0J-6500000D01*
G01*
X39900000Y-71400000D02*
G75*
G02*
X38200000Y-69700000I0J1700000D01*
G01*
X78200000Y-69700000D02*
G75*
G02*
X76500000Y-71400000I-1700000J0D01*
G01*
X31700000Y-63200000D02*
G75*
G02*
X30000000Y-61500000I0J1700000D01*
G01*
X30000000Y-39900000D02*
G75*
G02*
X31700000Y-38200000I1700000J0D01*
G01*
X30000000Y-39900000D02*
X30000000Y-61500000D01*
X46400000Y-71400000D02*
X39900000Y-71400000D01*
M02*
