M48
INCH,TZ
T1C0.0118
T2C0.0157
%
G90
G05
T1
X15906Y-15354
X15906Y-15906
X17126Y-18307
X17323Y-22480
X17559Y-16929
X18071Y-18740
X18110Y-22047
X18583Y-14252
X19335Y-20551
X23740Y-13858
X23740Y-14646
X23740Y-15276
X23740Y-15984
X23740Y-16772
X23740Y-17677
X25512Y-15276
X26496Y-13858
X27008Y-13858
X27047Y-16850
X27717Y-16850
X28228Y-16417
X28386Y-15276
X28386Y-17677
T2
X18228Y-19488
X18228Y-20000
X18937Y-19488
X18937Y-20000
X19764Y-15000
X19764Y-17362
X20866Y-15000
X20866Y-17362
X22913Y-19567
X26220Y-19252
X26890Y-19331
X26890Y-20079
X26890Y-20787
X27598Y-19331
X27598Y-20079
X27598Y-20787
T0
M30
